<?xml version="1.0" encoding="utf-8"?>
<!-- Generator: Adobe Illustrator 21.0.0, SVG Export Plug-In . SVG Version: 6.00 Build 0)  -->
<!DOCTYPE svg PUBLIC "-//W3C//DTD SVG 1.1//EN" "http://www.w3.org/Graphics/SVG/1.1/DTD/svg11.dtd" [
	<!ENTITY st0 "fill:#B9C0CD;">
]>
<svg version="1.1" id="Layer_1" xmlns="http://www.w3.org/2000/svg" xmlns:xlink="http://www.w3.org/1999/xlink" x="0px" y="0px"
	 viewBox="0 0 786.4 367.8" style="enable-background:new 0 0 786.4 367.8;" xml:space="preserve">
<g>
	<path style="&st0;" d="M108.4,233.3c0.5,1.5,0.2,4.2,0.3,6.1c0.1,2.3-0.6,3.9-1.6,5.4s-1.3,3.5-2.8,4.7c-3.2,4.8-7.9,9.2-11.5,13.6
		c-0.4,0-0.7,0.4-0.7,0.4c-3.4,1.7-6.3,3.4-9.7,5.1c-4.1,2.5-8.2,5-12.6,7.5c-1.1,0.4-1.9,0.9-2.6,1.3c-7.1,2.7-14.7,3.4-22.4,4.2
		c-8,0.8-15.3-0.7-22-4.6c-0.8-0.3-1.6-0.7-1.6-1.1c-0.8-1.5-1.6-1.8-2.8-2.2c-2.7-0.6-4-2.5-4.5-5.1c-0.4-1.1-1.3-2.6-1.8-4.5
		c-0.4-1.1-0.9-2.6-1.7-3.7c-0.4-0.4-0.4-0.7-0.4-1.1c0.7-1.2,0.3-1.5-1.2-1.8c-0.4,0-1.2-1.5-0.9-2.2c0.7-1.9,0.2-3.8-1.4-5.7
		c-0.8-0.7-1.3-2.6-1.3-3.8s0.6-2.3-1.3-2.2l-0.4-0.7c0.2-2.7,0.1-5-0.8-7.6c-0.6-3.4-0.4-6.9-0.5-9.9c-0.1-1.5-0.5-2.7-0.6-3.8
		c-0.5-1.5-0.5-2.7-0.6-4.2c0.2-2.7,0.5-5.4,0.3-8.4c0-0.4-0.8-1.1-1.2-1.5c-0.1-1.5,0.2-3.1,0.5-4.2c-0.1-1.1,0.3-2.3,0.2-3.5
		c0-0.4,0.3-0.8,0.3-0.8c0.4,0,0.8,0.3,0.8,0.7c0.5,1.5,0.2,3.4,0.6,4.6c0.1,1.1,0.9,1.9,1.3,3c-0.1-1.1,0.3-2.3,0.2-3.5
		c-0.1-1.5-0.2-3.8-0.3-5.7c0-0.8-0.5-1.5-0.9-2.2l0-0.4c-1.9,0.5-1.9-0.3-1.6-1.4c0.3-1.5,0.6-3.5,0.9-5c0-0.8-0.1-1.9-0.1-2.7
		c0-0.8-0.1-1.5,0.3-1.9c0.7-1.9,2.1-4.3,0.1-6.1c-0.4-0.7,0.3-2.3,0.6-3.1c0.3-1.9,1.3-3.9,1.6-5.4c0.3-1.2-1.3-2.2,0.6-3.1
		c-2.4-1.4,0.2-2.7,0.6-3.9c0-0.8-0.1-1.5-0.1-1.9c-2-2.6-0.2-4.2,0.4-6.1c1.4-2.4,1.7-4.7,2.3-7.4c0.4-0.4,0.3-1.2,0.3-1.9
		c0-0.4-0.4-0.7-0.4-1.1c-0.4-0.4,0-0.8-0.1-1.1c1.2,0.3,1.1-0.8,1.1-1.2c0.6-3.1,1.2-5.8,1.5-8.9l0.4,0c-3.2-2.9,0.1-5,0.4-6.9
		c0-0.4,0.3-0.8,0.3-1.2c-1.3-3.8,0.4-6.5,2.9-9.7c0.7-1.2,0.2-3.1,2.1-3.2c0,0,0-0.4,0-0.8c-1.2-1.5-0.1-2.3,0.6-3.9
		c0.7-1.6-0.2-3.1-0.2-4.6c2.7,0.6,4.2-1,3.3-3.6c-0.5-1.5-0.1-2.3,1.3-3.9c1.4-2,3.2-4.8,3-7.8c-0.1-1.1,1.4-2,1.4-2.7
		c0.3-0.8-1.2-1.8-0.9-2.2c1.1-1.6,2.2-2.4,3.2-4c0.4-0.4,0.7-1.2,0.7-1.2c-1.6-2.2,0.2-3.5,1.3-5l0.4,0l-0.4,0
		c1.1-1.6,2.1-3.9,3.5-5.9c0.7-1.9,1.7-3.5,2.4-5.1c1.1-1.6,1.3-3.5,1.7-5.1c0.3-0.8,1.1-1.6,1.4-2.4c2.9-4,6.1-8,8.9-11.9
		c1.8-2.4,4-4.4,5.8-6.8c2.2-2.4,4.3-6,6.8-8.4c0.3-0.8,0.7-1.6,1.1-1.6c3.7-2.1,7-5.3,11.6-5.6c0.4,0,0.8,0,0.7-0.4
		c4.8-3.3,10.6-1.7,15.9-2.7c6.5-0.7,13.4-0.7,19.9,0.5c1.5,0.3,2.7,0.6,3.9,1.3c2.8,2.2,5.9,3.9,7.2,6.9c0.8,1.5,2,2.6,2.9,3.7
		c1.2,1.8,2.1,4.5,1.9,6.8c-0.3,0.8,0.1,1.5,0.1,2.3c0,0.4,0.4,0.7,0.4,0.7c-1.4,2.7,0.6,4.9,0.4,8c-0.3,2.3-0.1,5,0.4,7.6
		c0.2,3.8-0.4,7.3-0.9,11.5c-0.4,0.4,0,0.8,0.1,1.5c-0.3,1.2-0.2,3.1-0.2,3.1c-2.2,0.9-1.8,1.6-1.4,3.1c0,0.4-0.4,0.4-0.3,0.8
		c-1.4,3.1-2.7,6.3-4.5,9.4c-1,2.7-3.2,5.1-5.4,7.5c-0.4,0.4-1.1,1.2-1.1,1.2c-3.8-0.2-7.3-0.8-11.1-1c-1.5-0.3-1.6-0.7-0.5-1.9
		c3.6-4.4,7.2-9.2,9.2-14.6c1.3-3.9,2.3-7.8,3.2-11.6c0.6-2.7,1.2-5.8,1.5-8.5c0.3-1.9,0.2-3.8,0.5-5.8c0.2-3.5,0-7.3,0.2-10.7
		c0.2-3.1,0.1-5.4-2.3-7.9c-1.6-1.1-2.8-2.9-4.1-4.8c-2.4-2.6-5.9-3.5-9-4.5c-2.3-0.6-4.2-0.5-6.1,0.3c-4.5,1-8.6,3.1-12.3,5.6
		c-1.5,1.2-2.2,2.4-3.2,4c-1.8,2.4-3.6,5.2-5.4,7.5c-1.4,2-3.2,4-4.6,6.4c-1.8,2.8-3.5,5.9-5.7,8.3c-0.3,0.8-0.7,1.6-1,2
		c-0.6,2.7-1.7,5.1-2.3,8.1c-0.4,0.4-0.7,1.2-0.3,1.5c1.2,1.8,0.2,3.4-0.5,5c-1,2.7-2,5.1-2.7,7.8c-0.6,2.3-1.6,5.4-2.6,8.2
		c-0.4,0-1.1,0.1-1.5,0.5c-0.7,0.4-1.5,0.5-2.2,0.9c0.8,0.3,1.2,0.7,1.6,1.1c1.2,0.3,1.9,0.3,1.2,1.5c-0.7,1.6-0.2,3.5-2.5,4.3
		c-0.4,0.4-0.3,0.8-0.3,1.2c-0.3,2.3,0.2,4.6-2,6.6c-0.4,0-0.4,0.4-0.3,0.8c1.2,1.5,0.9,2.6-1.4,1.6c-0.4-0.4-1.1,0.4-1.1,0.4
		c0,0.4,0.4,1.1,0.8,1.1c2.3-0.1,1.2,0.7,0.5,1.9c-0.4,0-0.4,0.4-0.3,1.2c-0.6,3.1-1.2,5.8-3,8.2l-0.4,0.4c1.7,4.1-0.8,6.9-1.8,10
		c-0.4,0.4-1.1,0.4-1.1,1.2c-0.4,0-0.7,0.8-0.7,1.2c1.2,0.7,0.5,1.5,0.1,2.7c-0.3,2.3-0.6,3.9-0.8,6.2c0,0.4-0.3,0.8-0.7,0.8
		c-1.5,0.5-1.1,0.8,0.1,1.1c1.2,0.3,0.8,1.1-0.3,1.5c-1.5,0.8-2.6,2-1.3,3.5c0.4,0.4,0.1,1.1-0.3,1.5c-0.3,1.9-1.4,3.1-1.3,5.4
		c-0.3,2.3-0.1,5.4-1.9,7.4c0,0.4,0,0.8,0.1,1.5c0,0.8,0.1,1.9,0.1,2.7c-1.3,5-1.4,10.8-3,16.2c-1,3.1-0.4,6.9-0.6,10.4
		c-0.4,7.7-1.1,15.4-1.1,23c0.1,1.1,0.1,1.9,0.2,3.1c0.5,1.5,0.1,2.7-1.4,2.7c-0.4,0-1.1,0.8-1.1,0.8c-0.4,0.4,0.1,1.1,0.5,1.5
		c0.4-0.4,0.7-0.4,1.5-0.8c0.4,0,0.7-0.4,1.1-0.4c0,0.4,0,0.8,0.1,1.1c0.2,3.1,0.3,5.7,0.4,8c0.1,2.3,1.6,9.5,2.5,11.7
		c1.3,3.4,2.6,6.4,4,10.1c0.9,2.2,1.8,5.3,2.3,7.5c0.4,1.1,0.9,1.9,2,2.2c1.2,0.7,1.7,2.6,2.5,4.1c1.2,0.3,2.4,1.4,3.2,2.1
		c9.4,3.7,18.5,2.9,27.1-1.4c4.9-2.2,10.1-4,14.1-8c2.9-2.8,5.8-5.7,7.6-8.8c2.1-3.6,4.6-6.4,6-9.9c0.7-0.8,1-2,1.8-3.1
		C104.7,235,106.5,233.4,108.4,233.3z M3,212.7c0-0.4,0.4-0.4,0.4-0.4c0-0.4-0.1-1.1-0.5-1.5c0,0.4,0,0.8-0.3,1.5
		C2.6,212.4,2.6,212.4,3,212.7z M3.6,217.3c0,0,0,0-0.4,0l0,0.4c0,0,0,0.4,0.4,0.4C3.6,217.7,3.6,217.7,3.6,217.3z M3.9,223
		c0-0.4,0-0.4,0-0.8c-0.4,0.4-0.4,0.4-0.4,0.4c0,0.4,0,0.4,0,0.8C3.5,223,3.9,223,3.9,223z M7.5,248.8l0.4,0c0,0.4,0,0.4,0,0.4
		C7.5,249.2,7.5,248.8,7.5,248.8z M29.8,272.5c0.7-0.8,0.7-1.2-0.1-1.9c-1.2-1.5-2.4-2.9-3.3-4.4c-2.3-7.2-5.3-13.5-7.6-20.6
		c-2.7-8.7-2.8-17.5-3.6-26.2c-0.3-5-0.1-10.3-0.4-15.7c0-8,0.7-15.7,2.2-24.2c0.4-0.4-0.4-0.4-0.8-1.1c-0.4,0.4-1.1,0.8-1.5,0.8
		c0,0.4,0.4,0.7,0.5,1.5l0-0.4c-0.3,1.2-1.4,2.7-1.3,3.5c0.5,2.3,0.2,4.6-0.4,6.1c-0.3,0.8-0.3,1.5-0.3,2.3
		c-0.6,2.3,1.4,5.7-0.7,8.1c-0.7,1.2,0.2,3.4,0.3,5c0.4,1.1,0.1,2.3,0.5,2.7c1.6,1.4,1.3,2.2,0.2,3.4c-1.8,2.4-0.8,5.8-2.2,8.5
		l0,0.4c2,1,0.5,3,1,4.9c0.4,0.7,0.1,1.1,1.2,1.1c0.4,0,0.8,0.7,1.2,1.1c-0.4,0-0.7,0.8-1.1,0.4c-1.9-0.3-1.9,0.5-1.1,1.6
		c0.4,0.7,0.4,1.1,0.9,1.9c0,0.4,0.4,0.7,0.8,0.7c0.4,0,0.8,0,1.1-0.1c0,0.4-0.3,0.8-0.3,1.2c-0.7,1.6-1.4,2.4-1.3,3.5
		c0.1,2.3,1,4.2,1.5,6.4c0,0,0.4,0.4,0.8,0.3s0.7-0.4,1.1-0.4c0.1,1.1,0.9,2.6,1.4,4.5c0,0.4-0.7,1.2-0.7,1.6
		c-0.3,0.8-0.3,1.9,0.1,2.7c0.5,1.9,3.2,2.5,2.2,5.2c-0.4,0,0,0.4,0,0.8c0.8,1.5,1.7,3.4,2.6,5.2c0.4,1.1,0.9,3,1.7,4.1
		C25.7,268.9,27.8,271.1,29.8,272.5l0.4,0L29.8,272.5z M14.5,125.7c0.4-0.4,1.1-0.8,1.1-1.2c0.7-1.9,0.9-4.3,1.6-5.8
		c-0.1-1.1,0.3-1.9-0.8-1.1c-2-1-1.9,0.5-1.8,1.2c-0.3,1.5-0.6,3.5-0.5,4.6C14.1,124.2,14.1,124.9,14.5,125.7z M15.2,175.8
		c0.4,0,0.4,0.7,0.8,1.1c0.7-0.8,1.5-1.2,1.8-2c0.9-5,1.4-9.6,1.9-15c0-0.4-0.4-0.7-0.4-1.1c-0.4,0-0.8,0-1.1,0.4
		c-0.7,0.8-1.1,1.6-1,2.3C15.5,165.8,16.5,170.7,15.2,175.8z M18,266.6c0,0,0,0-0.4,0c0,0,0,0,0,0.4l0.4,0L18,266.6z M17.8,114.4
		c0,0,0.4,0.4,0.8,0.7c0-0.8,0.3-1.2,0.3-1.5c0,0-0.4,0-0.8-0.3C18.1,113.6,17.8,114,17.8,114.4z M18.5,151.5c0,0.8,0.1,1.5,0.5,1.9
		c1.2,0.7,0.9,1.9,0.1,2.7c0,0.4-0.3,0.8-0.3,1.2c0.4-0.4,0.8,0,0.7-0.4c0.4-0.4,0.7-1.2,0.7-1.6c0.6-3.5,1.2-6.9,2.2-10.1
		c0.6-3.5,1.9-7.4,2.9-10.9c0.5-4.2,1.5-8.5,2.4-12.7c2.3-8.1,3.8-15.5,7.2-22.9c1.1-1.6,1.3-3.5,2-5.5c0,0,0-0.4-0.4-0.4
		s-0.8,0-0.7,0.4c-0.3,0.8-1.1,1.6-1.4,2.4c-0.7,1.6-0.2,3.5-2.9,3.6c-0.4,0-0.7,0.8-0.7,1.2c-0.6,2.7-1.3,5.4-2.2,8.5
		c-0.3,1.2-0.6,2.7-0.9,4.3c-0.6,2.7-1.3,5.4-2.2,8.5c-0.3,1.2-0.2,2.7-1.3,3.5c-1.5,0.8-2.2,2.8-2.1,4.3c0.2,3.8,0,7.6-0.9,11.9
		C20.1,144.9,19.1,148,18.5,151.5z M19.1,109.8c0,0.4,0,0.4,0.4,0.7c0-0.4,0.4-0.4,0.3-0.8c0,0,0,0-0.4-0.4
		C19.5,109.7,19.1,109.8,19.1,109.8z M21.7,205.6c0,0.4,0,0.4,0,0.8c0,0,0,0,0,0.4c0-0.4,0.4-0.4,0.3-0.8
		C22.1,206,22.1,206,21.7,205.6z M24.1,223.1c-0.4,0-0.4,0-0.8,0l-0.4,0.4c0,0,0.4,0,0.4,0.4C23.8,223.5,23.8,223.5,24.1,223.1z
		 M24.8,243c0,0.4,0.4,0.4,0.8,0.7c0-0.4,0.3-0.8,0.3-1.2l-0.4-0.4C25.1,242.6,25.1,242.6,24.8,243z M25.4,98.7l0.4,0.4
		c0.4-0.4,0.4-0.4,0.7-0.8l-0.4-0.4C25.8,98.3,25.8,98.3,25.4,98.7z M25.6,206.6l0-0.4l0.4,0.4L25.6,206.6z M25.6,199.7
		c0,0,0.4,0.4,0.8,0.3c0,0,0.4-0.4,0.3-0.8l-0.4-0.4C26,198.9,26,199.3,25.6,199.7z M26.2,195.5l0.4,0c0,0,0-0.4-0.4-0.4l-0.4,0
		C25.8,195.5,25.8,195.5,26.2,195.5z M27.4,204.2c0-0.4-0.4-0.7-0.8-1.1c0,0.4-0.3,0.8-0.3,0.8c0,0.4,0,0.8,0.5,1.5
		C27,204.6,27.4,204.6,27.4,204.2z M27,249.4c0-0.4,0.3-0.8,0.3-0.8l-0.4-0.4c-0.4,0-0.4,0.4-0.4,0.4C26.6,249,26.6,249,27,249.4z
		 M28.6,176.2c-0.4,0-0.4-0.4-0.4-0.4c-0.8,0-0.8,0-1.1,0.4c0.4,0.4,0.4,0.4,0.4,0.4C27.9,176.6,28.2,176.2,28.6,176.2z M28.3,258.8
		c-0.4,0.4-0.7,0.4-1.1,0.8c0,0.4,0.4,0.7,0.8,1.1c0.4-0.4,0.7-0.8,0.7-1.2L28.3,258.8z M27.6,81.4c0,0.4,0,0.8,0,0.8l0.4-0.4
		C28,81.8,27.9,81.4,27.6,81.4z M28.2,196.9l0-0.4c-0.4,0-0.4,0-0.4,0.4c0,0,0,0,0,0.4C27.8,197.3,28.2,197.3,28.2,196.9z
		 M31.4,164.2c-0.4-0.4-0.8-1.1-1.6-1.1c-0.4,0-0.7,0.4-1.9,0.9c1.2,0.7,1.6,0.7,2.3,1C30.7,165,31.1,164.6,31.4,164.2z M28.1,165.9
		l0.4,0l0-0.4l0,0.4L28.1,165.9z M28.1,181.2c0.4,0,0.4,0,0.4,0c0.4,0,0.4,0,0.4,0C28.5,181.2,28.5,181.2,28.1,181.2z M30.8,173.8
		c-0.8,0-1.2-0.3-1.9-0.3l-0.4,0.4c0.4,0,0.8,0.3,1.2,0.7C29.7,174.6,30,174.2,30.8,173.8z M29,251.2c0.4,0,0.4,0,0.4,0
		c0.4,0,0.4,0,0.4-0.4c0,0,0,0-0.4-0.4C29.4,250.8,29.4,250.8,29,251.2z M30.3,253.4l-0.4-0.4c-0.4,0-0.7,0.4-0.7,0.4
		c0,0.4,0.4,0.4,0.4,0.7C29.9,253.8,30.3,253.4,30.3,253.4z M31.8,155.4c0,0-0.4-0.4-0.4-1.1l0,0.4c-2.2,1.3-0.6,3.9-1.2,5.8
		c0.4,0,0.8,0,1.1-0.1c1.9-0.5,0.3-2.3,1.4-3.1C33,156.5,33.3,155.7,31.8,155.4z M30.8,166.9l0-0.4c0,0,0,0,0.4,0
		C30.8,166.9,30.8,166.9,30.8,166.9z M31.1,113.3c0,0,0.4,0,0.4-0.4l0,0.4C31.1,113.3,31.1,113.3,31.1,113.3z M33.9,114.7
		c-0.8-0.3-0.8-0.7-1.2-0.7c-0.7,0.8-1,2-1.4,3.1l0,0.4C32.1,116.7,32.8,115.6,33.9,114.7z M32.5,72.4l-0.4,0L32.5,72.4z
		 M35.4,263.1c-0.4-1.1-1.2-1.8-2.1-3l-0.4,0c0,0.4,0,0.8,0.4,1.1c0.4,0.7,0.8,1.5,1.7,2.6C35.4,263.5,35.4,263.1,35.4,263.1z
		 M33.3,252.1c0.8,0.7,1.2,0.7,1.1-0.1s-0.8-1.5-0.9-2.2c0,0.4,0,0.8,0.1,1.1C33.6,251.3,33.3,252.1,33.3,252.1z M34.8,103.6l0.4,0
		L34.8,103.6z M35.3,269.6l0,0.4l-0.4,0L35.3,269.6z M35.6,89.8c0,0.8,0.8,1.5,1.2,1.8l0.4,0c0.7-1.9,1.7-3.5,2.4-5.1
		c0-0.4-0.4-0.7-0.4-0.7c-0.4,0-0.7,0.4-0.7,0.4c-0.3,1.5-1,2.3-2.2,2.4C36,88.6,35.3,89.8,35.6,89.8z M41,126.6
		c0-0.4-0.8-0.3-0.8-0.3c-0.4,0.4-0.7,0.4-1.1,0.8c0,0.4,0.4,0.4,0.8,0.7C40.2,127,40.6,126.6,41,126.6z M39.2,84.2
		c0.4,0,1.1-0.1,1.5-0.5c1.4-1.6,0.6-3.5,0.1-4.6c-0.3,1.2-1,2.3-1.3,3.9C39.1,83.5,39.2,83.9,39.2,84.2z M44.2,77.5
		c-1.1,0.8-2.2,0.9-3.4,1.3c0.4,0.4,0.8,0.3,0.8,0.3c3.5,1.7,4.3,1.7,5.2-2.6c0-0.4-0.4-1.1-0.4-1.1c-0.4,0-0.8,0-1.1,0.4
		C44.9,76.3,44.6,77.5,44.2,77.5z M43.2,81.4c0,0.4,0,0.4,0,0.4C43.2,81.4,43.2,81.4,43.2,81.4z M43.8,115l0-0.4
		C43.8,114.6,43.8,114.6,43.8,115z M46.9,99.5l-0.8-0.3c-0.4,0.4-1.1,0.8-1.5,1.2c0.4,0.4,0.4,0.4,1.2,0.7
		C46.2,100.7,46.5,99.9,46.9,99.5z M48.3,97.2c-0.4-0.4-0.4-0.4-0.4-0.7c-0.4,0.4-0.7,0.8-0.7,1.2c-0.4,0,0,0.4,0.4,0.4
		C47.5,97.6,47.9,97.6,48.3,97.2z M49.5,90.6c-0.7,1.2-1.4,2.4-1.8,3.2c-0.4,0,0.8,0.7,0.8,0.7c0.7-0.4,1.5-0.8,2.2-1.6
		C50.3,91.7,49.9,91.3,49.5,90.6z M54,60.2c0,0,0,0.4,0.4,0.7c0,0,0.4,0,0.4-0.4c0.3-0.8,1-2,1.4-2.7c0-0.4,0-0.8,0-0.8
		c-0.4,0-0.8,0-0.7,0.4C54.7,58.2,54.4,59.4,54,60.2z M54.5,77.7c0.4,0,0.4,0,0.4-0.4C54.5,77.3,54.5,77.3,54.5,77.7z M56.5,56.2
		c0-0.4,0.4-0.4,0.4-0.4c0.4,0,0-0.4,0-0.4l-0.4,0C56.1,55.5,56.5,55.8,56.5,56.2z M60,50.7l0-0.4c-0.7,1.2-1.4,1.6-2.2,2.8
		C58.6,52.3,59.3,51.5,60,50.7z M58.9,66.8c0,0,0,0,0,0.4C59,67.2,59,67.2,58.9,66.8z M61.4,48.3l0,0.4c0.4,0,0.4,0,0.7-0.4
		c-0.4,0-0.4,0-0.4-0.4L61.4,48.3z M62.1,46c0.4,0.4,0.8,0.7,0.8,0.7c0-0.4,0.3-0.8,0.3-1.2c0,0,0,0-0.4,0
		C62.4,45.6,62.5,45.9,62.1,46z"/>
	<path style="&st0;" d="M111.9,203.3l0-0.4c0-0.4,0-0.8,0.3-1.2c1.1-0.8,1-2,1-2.7l-0.1-2.3c-0.1-1.9-1.4-4.5-1.5-6.4
		c0-0.8,0.3-1.5,0.6-2.3c0-0.4,1.1-1.6,1.4-2.4c0.3-1.9,0.2-3.5,1.3-5.4c0.7-1.6,1.8-2.8,2.4-4.7c0.9-3.9,7.8-11.5,8.6-10.8
		l-1.7-2.6c-0.8-0.3-0.8-1.1-1.2-1.5c0-0.8,0.3-1.2,0.3-1.2c-0.1-1.1-0.5-1.5-0.9-2.6c-0.8-0.7-0.8-1.1-0.9-1.9
		c0-0.8-0.4-1.1-0.9-1.9c0.3-0.8,0.7-1.2,0.6-2.3c0-0.4-0.4-0.4-0.4-0.4l-0.2-3.8c0,0,0.4-0.4,0.3-0.8c0-0.4-0.4-0.4-0.4-1.1
		c0.4-0.4,0.3-1.2,0.3-1.9l-0.1-1.1c0.3-1.2,0.7-1.9,1.4-2.7l-0.1-1.5l2.1-3.2c1.1-1.6,1.8-3.2,2.9-4c0.7-1.6,1-3.1,2.9-3.6
		c3.7-1.7,7.4-4.6,13.1-4.9c0.7-0.4,2.2-1.3,3.8-1.3c0.4,0,1.2,0.3,1.5,0.3c0.8,0,1.9-0.5,3-0.5c0.8,0,1.9,0.3,2.3,0.6
		c0,0.4,0,0.8,0.4,1.1c1.2,0.3,2.3,0.3,3.5,1c1.5,0.3,2,1,3.5,1.7c1.2,1.5,2.8,2.2,4,2.9l2.8,1.8l1.6,2.2c0,0.8,0.5,2.3,0.9,3
		c0.1,1.5,1.7,2.6,2.5,3.3c0.8,1.5,1.3,2.2,1.3,3.8c0.4,0.4,0.5,1.9,0.5,2.3c0.8,1.5,1.3,2.6,1.3,3.8c0.5,3,1.1,6.1,1.3,9.5
		l0.6,11.1c0.1,1.5-0.2,3.1-0.5,5l0.1,1.1c0.1,1.1,0.5,2.3,1.6,2.2c3.7-2.1,7.5-2.7,10.9-4c6-2.6,11.2-5.2,15.2-8.8l4.1-2.9
		c0.3-1.2,1.1-1.6,1.4-1.6s4.4-2.9,4.8-2.5c0.4,0.7-1.7,5.1-1.6,5.8c0,0.4-0.3,0.8-0.7,1.2c-3.7,2.9-7.7,6.1-12.2,9
		c-4.8,3.3-11.2,5.5-16.5,7.3c-1.9,0.9-3.3,2.1-5.6,2.2l-1.5,0.1c-0.8,0-1.5,0.5-1.5,1.2l0,0.8c0,0.8-0.7,1.9-1,2.3l0.2,4.2
		c-0.7,1.2-0.3,2.3-1,3.1l-1.8,10c-2.8,4.7-5.7,8.7-8.1,13l-2.1,3.9c-1.8,2-4.4,4.4-7.7,6.1l-4.5,2.5l-10.2,2.8
		c-1.1,0.4-2.3,0.5-3.4,0.6c-6.9,0.4-14.3-3.1-18.1-9c-2.9-4.1-3.8-7.8-5.9-11.2C112.6,209.8,112,206.7,111.9,203.3z M115.4,183.6
		c0,0-0.4,0-0.4,0.4C115.5,184,115.4,183.6,115.4,183.6z M121,202.1c0.3-0.8,0.7-0.8,0.7-1.2c0-0.4-0.4-0.4-0.8-0.3l-0.8,0
		c-0.7,0.4-1.5,0.5-2.3,0.5l-0.8,0c0.9,1.9,2.8,2.9,4,2.9L121,202.1z M119.1,218.2l-0.4,0L119.1,218.2z M119.9,195.2
		c0,0.4-0.3,0.8-0.3,1.2c0,0.4,0,0.4,0.4,0.4L119.9,195.2z M120,212.1l0-0.4L120,212.1z M121.9,212.3c0-0.4,0.3-0.8,0.3-1.2
		s-0.4-0.4-0.4-0.7l-0.1-1.9c-0.4-0.4-0.4-1.1-0.5-1.5s0-0.8,0.3-1.5l-1.4,2.4c0,0.4,0.4,0.4,0.4,0.4l-0.4,0.4
		c0.4,0.4,0.4,1.1,0.5,1.5L121.9,212.3z M121.3,192.9c0,0,0.4-0.4,0-0.4c-0.7,0.4-1.1,1.2-1.1,1.6
		C120.6,193.7,121.3,193.2,121.3,192.9z M124.2,219.1c0,0.4,0,0.4,0.4,0.4c0,0,0-0.4,0.3-0.8l-2.5-4.5c0,0.4-0.4,0.4-0.4,0.4
		L124.2,219.1z M133.6,150.5c0.4,1.1,0.9,1.9,0.9,2.6l1.6,1.8l1.6,2.2c0,0.8,1.2,1.8,1.6,2.2l2.4,2.6l3.6,4c0.4,0.7,1.2,0.7,1.6,1.1
		c0.4,0.7,1.2,1.5,2,1.4c0.4,0.7,1.5,0.3,1.9,0.7c1.1-0.1,2.3,0.3,3.1,0.2c0.4,0.4,0.4,0.7,1.2,1.1l2,1l11.2,2.5l1.1-0.1
		c1.1-0.1,1.1-0.4,1.4-1.6l-0.4-8.4c-0.2-3.1-0.3-6.1-0.8-8.8l-0.1-2.7c-0.2-3.8-0.8-7.2-0.9-10.7c-0.1-1.5-0.5-2.7-2.1-3.7
		c-1.9-0.7-4.3-2.1-6.7-3.5c-2-1.8-3.6-2.9-5.6-3.9c-1.6-1.1-3.9-1.3-5.4-1.6c-2.3-0.6-4.3-1.3-6.2-1.2c-1.1,0.1-2.3,0.5-3.4,0.9
		c-2.6,1.7-4.4,3.7-6.2,5.7c-1.1,1.2-1.8,2.4-2.5,4c-0.4,0-0.8,0-0.7,0.8l0.1,2.7l1,4.5c0.4,1.1,1.3,2.6,2.1,3.3
		C133.2,150.2,133.6,150.2,133.6,150.5z M130.1,223.4c0.8,0.7,2.3,1,2.8,2.2c0-0.4,0.3-0.8,0.3-1.2c0-0.4-0.4-0.7-0.4-1.1
		L130.1,223.4z M134.9,205.5c-0.4,0.4-1.5,0.8-1.5,1.2c0,0.4,0.4,0.7,1.6,1.1l0.1,1.1c0,0.8,0.1,1.5,0.5,1.9c0,0.4-0.4,0.4-0.4,0.4
		l0.8,0c0.7-0.4,0.7-1.2,0.7-1.6l2.2-9.3l0.7-1.6c0.4-0.4,1.1-0.4,1.9-0.5c-0.4,0.4-0.3,1.2-0.3,1.2c0.4,1.1,0.5,2.3,0.5,2.7
		c-0.3,2.3-0.1,4.6,0,6.9c0.1,2.3,0.2,4.6,0.7,6.5c0.1,1.1,0.1,1.5,1.6,2.2c0.8,0,1.2,0.3,1.9,0.3c3.1-0.2,6.4-1.9,7.1-4.2
		c0.4,0,0.3-1.2,0.3-1.2c4.1-1.4,5.5-4.9,7.2-8l8.1-21.8l0-0.4c0-0.4-0.4-0.7-0.8-1.1c-7-1.6-13.5-2.7-20.5-3.9
		c-1.2-0.7-2.3-1-3.1-1c-1.5,0.1-2.2,1.3-2.5,4c-0.3,2.3-0.1,5,0,7.6l0.2,3.4c-0.3,1.5-2.1,3.2-2.8,4.7c0,0.4-0.4,0.4-0.4,0.4
		c-0.8-0.3-0.8-0.7-0.8-0.7c0.4,0,0.7-0.8,0.7-1.2c0-0.4-0.4-0.7-1.2-1.5c-0.4,0.4-0.4,0.4-0.7,0.4l-0.4,0l0,0.4
		c-0.3,0.8-0.7,1.6-0.6,2.3l0,0.8c-0.3,0.8-1,2-2.2,2.4c0,0.4-0.3,1.5-0.7,1.9l1.3,2.6c0-0.4,0.4-0.4,0.7-0.4L134.9,205.5z M137,215
		l-1.5,0.1c0,0,0.4,0.4,0.4,0.7l1.4,4.9c0.4,0.7,0.8,0.7,1.6,1.1c0-0.4,0-0.8,0.3-1.2C138.7,218.4,137.4,216.9,137,215z
		 M140.2,188.4c-0.4-0.4-0.8-0.3-0.8-0.7l-0.7,0.8c0,0,0,0.4,0.4,0.7C139.4,188.5,139.8,188.8,140.2,188.4z"/>
	<path style="&st0;" d="M289.6,164.3c0.1,2.3-0.9,5-1.2,6.9c-0.5,5.4-7.2,23.3-9.2,29.2c-1,3.1-2.5,11.6-3.8,14.7
		c-1,3.1-11.5,29.3-12.5,32.4c-0.9,3.9-4.3,6.3-5.3,9.1c-1.4,2-3.7,2.9-3.6,4.4c-0.3,1.9-2.1,3.6-3.2,4.8c-0.3,0.8-1.8,2.8-2.5,4
		c-2.8,5.1-7.8,4.6-10.5,4.7c-2.3,0.1-1.8,1.2-6.9-0.8c-4.3-0.9-8.2-3.4-12.2-5.9c-2.8-2.5-2.9-5.2-5.4-8.5c-2-1.4-2.8-3.3-4.1-5.9
		c-0.9-1.9-1-4.5-1.5-6.4c-0.9-2.6-1.8-4.9-2.3-8.3c-0.5-2.7-1.1-5.7-1.6-8c-0.1-1.1-0.1-2.7-0.2-4.2c-0.1-2.7-0.3-5.3-0.4-8
		c-0.4-0.4-1.2-1.1-1.2-1.1c1-2.7,0.5-20.7,0.3-23.3c-0.1-1.1-0.1-2.7-0.2-3.8c0.6-2.3,0.5-4.2,0.4-6.1c-0.1-1.1,0.3-2.3,0.2-3.1
		c0-0.4,0-0.8-0.4-1.1c-0.4,0-0.4,0-0.4-0.4c0,0,0-0.4,0.3-0.8c0.3-1.2,0.3-2.3,0.2-3.5c-0.1-2.3-0.6-4.6-0.7-6.5
		c-0.1-1.5,0.2-2.7,0.6-3.9c0-0.4,0-0.8-0.1-1.1c-0.4,0-0.8,0-0.8,0c0.3-1.9,0.2-4.2,0.1-6.1c0,0,0-0.4,0.4-0.4
		c3.3-2.5,2.3-6.6,4.5-9c0,0,0-0.4,0-0.8c-0.5-1.9-0.5-3-0.6-4.6c-0.1-2.7,0.1-5,1.5-8.1c1.4-1.6,1.7-4.3,2-6.2c0.2-2.7,0.1-5,0-7.3
		c0.3-1.5,0.2-3.8,0.1-5.4c0.3-0.8,0.7-1.2,1-2c0-0.8,1.1-1.6,1.4-2.7c0-0.4-0.4-0.7-0.8-1.5c0-0.4-0.1-1.5,0.3-1.5
		c4.1-2.9,3.4-7.4,4-11.3c0.9-5.4,2.1-10.8,3.4-15.9c1-3.1,1.6-6.2,4.2-8.2c1.1-1.6,0.9-5,1.9-7.7c0.4-0.4,0.7-1.6,1.4-2.4
		c0.7-1.9,3.2-5.5,4.5-8.3l0,0.4c0.5-4.6,4.6-7.5,5.2-10.6c2.7-7.4,8.2-11.9,12.1-17.8c1.8-3.2,4.6-6.4,9.6-7c3-0.9,6-1.8,9-3.5
		c1.1-0.8,2.6-1.3,4.1-1.4c3.8-0.2,7.7,1.9,10.2,4.4c2.8,3.3,2.3,6.8,2.8,10.6c0.1,1.1,0.1,2.3-0.2,3.5c0.3,5.3-0.2,10.7-1.1,15.7
		c-0.6,3.1-0.8,5.8-1.1,8.9c-1.5,8.1-4.6,14.8-7.7,22.2c-1,2.3-2.1,4.7-3.1,6.7c-1,2.3-1.7,4.3-2.8,5.9c-2.8,4.7-4.5,9-6.9,13.7
		c-2.5,4-5.4,6.8-7.9,10.4c-5.7,8.3-13.4,14.8-20.3,22.5c-0.7,0.4-1.8,1.6-2.2,2.8c-0.5,4.2-0.3,8.8-0.5,13c0.2,3.8,0.4,7.2-0.6,10
		c-1,2.7-0.9,5.4-0.7,8.1c0.1,2.3,0.2,4.6,0.4,6.9c0,0.8,0.1,1.5,0.1,2.3c0.2,3.1,0.3,6.5,0.5,9.5c0.1,1.5,0.1,2.7-0.2,4.2
		c-0.3,1.9,0.2,19.5,0.3,21.4c0.3,5.3,1.3,10.3,1.5,14.8c0.2,3.8,1.1,7.2,1.7,10.6c2.3,7.5,0.8,16,5.6,20c0.4,0.4,0.8,0.3,1.2,0.3
		c1.5-0.1,4.5-1.4,5.2-2.6c3.6-3.6,3.7-3.2,6.1-7.6c2.1-3.9,5.4-7.2,7.1-11.1c0.3-0.8,1.1-1.6,1-2c1.7-3.9,1.4-10,3.9-13.6
		c1.3-3.9,7-21,7.9-25.6c1.5-7.7,9.8-25.7,12.8-32.8c0.7-0.8,2.7-6.6,4.2-6.7c0.4,0,0.4,0.4,0.8,1.5
		C289.6,163.2,289.6,163.5,289.6,164.3z M210.3,197.8c-0.1-1.9-0.9-3.4-1-5.3c0.4-8.1,0.3-16.1,0.3-23.7c0-0.8,1-2.3,1-3.1
		c0.6-3.1,3.9-5.9,4.1-9c0-0.4,0-0.4,0-0.8c0-0.4-0.4-0.7-0.8-0.7c-0.4,0-0.8,0-1.5,0.5c-0.7,0.4-1.4,2-2.9,2.4
		c-1.1,0.8-1.8,1.2-1.8,2c0,0.4,0,0.8,0.8,1.5c0,0.4,0.4,0.4,0.4,0.7c-0.4,0.4-0.7,0.8-0.7,1.2c-1,3.5,0.4,7.2-1,10.4
		c-0.4,0-0.4,0.4-0.4,0.4c0,0.4,0,0.4,0.4,0.4c0.4,0.7,0.9,1.9,0.9,3c0.1,1.5-0.2,3.5-0.1,4.6c-0.2,3.1-0.8,6.5-0.6,10
		c0,0.8,0.1,1.5,0.1,2.3c0,0.4,0,0.8,0.1,1.1c0.1,1.9-0.2,3.8-0.5,5.4c-0.3,0.8,0.1,16.8,0.1,17.6c0.1,1.5,0.9,2.6,2.1,3.7l0,0.4
		c-0.3,1.2-0.3,1.9-0.2,3.1s0.1,2.3-0.6,2.7c1.1-0.1,1.6,1.1,2,2.6c1.4,5.3,3.2,10.5,4.6,15.8c0.4,1.1,0.5,2.7,1.4,4.1
		c0,0.4,0.8,0.3,1.2,0.3c0,0,0.4-0.4,0.3-0.8c0-0.8-0.1-1.5-0.5-2.3c-3.4-6.7-5.7-13.5-6.4-19.9c0-0.4,0-0.8-0.1-1.1
		c-0.1-1.9,0.2-3.8,0.5-5.8c-0.1-1.5-1.6-2.2-1.7-3.4C209.7,216.6,210.4,199.4,210.3,197.8z M223.3,110c0.8-6.2,2-12.3,4-18.2
		c-1.1,0.8-2.2,1.6-3.3,2.8c-0.4,0.4-1.1,0.8-1.8,1.6c-1.1,1.2-1.8,2-2.5,3.2c-0.3,0.8-0.3,1.2-0.3,1.5c0.4,0,1.2,0.3,1.9,0.3
		c0.7-0.4,1.1-0.4,1.5-0.5c0.4,0,0.4,0,0.4,0.4c0,0.4-0.3,0.8-0.3,1.2c-0.7,1.2-1,2.3-1.7,3.5c-1.1,1.2-1.8,2-2.1,3.6
		c-0.3,1.5-1,3.1-1.7,4.3c-1,2.3-1.3,4.7-1.2,6.9c0.1,1.5,0.2,3.1,0.6,4.6c0.1,1.1-0.2,2.7-0.2,3.8c-0.4-0.7-0.9-2.2-1.3-3.4
		c0-0.4-0.4-0.7-0.8-1.5c-0.7,0.4-1.5,1.2-1.8,1.2c-0.4,0.4-0.3,1.5-0.3,1.9s0,0.4,0,0.4c1.2,0.7,1.2,1.8,1.3,2.6
		c0.1,1.5-0.6,3.1-0.9,4.3c-0.1,4.6-1.1,8.5-1.3,12.3c0,0.4,0.4,1.1,0.5,1.5c2.2-2,4.8-2.9,4.7-5.6c0-0.4,0-0.8-0.1-1.1
		c-0.1-1.5-0.5-3-0.6-4.2C217.4,128.2,220.4,119.3,223.3,110z M232.6,125.6c0,0.8,0.1,1.5,0.1,1.9c0.8,0,1.1-0.1,1.5-0.5
		c4.3-4.8,8.7-9.6,13-14.4c3.3-3.2,4.2-7.5,6.3-11.4c1.7-3.5,3.5-6.3,5.6-9.5c2.4-5.9,5.2-11,7.6-16.5c0.4-0.4,1.1-1.6,1-2.3
		c1.3-5,2.9-10.1,4.9-15.9c0.2-3.1,1.6-7,2.2-10.1c0.9-4.3,0.7-8.5,0.9-13c0-0.4,0.7-1.2,0.7-1.9c-0.1-2.3-1.4-4.5-3-6
		c-1.2-1.5-2.8-2.5-4-2.5c-1.1,0.1-2.2,1.3-3.3,3.2c-5.7,7.9-11.4,15.5-14.8,24.5c-1.7,4.3-3.7,9-5.4,13.3
		c-1.6,6.2-3.1,13.2-4.7,19.8c-1.4,3.1-2.7,6.6-4.1,9.4c1.2,0.3,1.6,1.1,1.6,1.8c0.1,1.1-0.7,1.9-1,2.7c-0.2,3.8-1.1,8.1-2.1,12
		c-1.7,5.1-2.1,10.4-3.1,14.7C232.5,125.2,232.5,125.2,232.6,125.6z"/>
	<path style="&st0;" d="M354.3,224.1c-10.5-3.7-15.6-12.6-16.9-23.2c-1.5-7.2-1.9-15.6-2.3-22.8c0-0.8-0.5-1.9-0.9-2.2
		c-0.4,0.4-1.5,0.5-1.5,1.2c-3.2,4-5.3,9.1-8.1,13c-2.1,3.9-4.9,8.3-7,11.8c-0.7,0.8-2.2,1.3-2.9,2.4c-1.5,1.2-3,1.7-4.1,2.5
		c-2.2,1.6-4.4,4.1-6.7,4.2c-4.2,1-9.2,0.5-12.6-0.5c-7.7-1.1-11.5-7.8-13-14.6c-1.6-8,0.7-16.9,1-24.5c0.6-3.5,3.5-7.1,6-10.6
		c1.7-3.5,5.1-5.6,7.2-8.4c4.4-3.7,8.9-6.2,14.6-5.7c3.8-0.2,8.3-2,12.9-2.2c7.2-0.4,12.7,8.5,9.6,16c-1.4,2-2.2,2.4-5.3,0.7
		c-0.4-0.4-1.2-0.3-1.9-0.7c-4-2.9-4.8-3.2-7.2,0.8c-3.3,2.5-5.4,6.4-8,8.4c-5,7.5-8.3,16.9-8.2,26.1c0.1,1.5,0.6,3.8,0.6,4.9l4.5-1
		c2.9-2.8,6.6-4.9,8.8-7c9.7-12.4,18.6-24.7,24-38.7l5.8-20.2c1-2.7,2-5.1,2.7-7.8c1.3-4.7,4.9-7.9,8.7-10c1.5-1.2,5-0.3,6.9-0.4
		c2.7,0.2,5,0.5,6.6,1.2c0.8,0.3,2.4,2.2,2.8,3.3c0,0.8-0.3,1.5-1,2.7c-2.2,8.5-5.3,16.3-7.6,24.1c-2.7,6.6-5,13.6-6.2,20.6
		c-1.2,6.6-0.8,14.2-0.5,20.3c-0.1,4.6,0.1,8.8,0.2,12.2c0.2,3.8,0.4,8.4,2.8,10.2c2.4,2.9,5.4,1.6,7.2-0.4
		c8.6-3.5,11.7-10.2,14.4-18.3c1.3-5,6.8-9.9,8.4-15.3c1.3-5,2.4-12.4,6.6-13.3c0.4-0.4,0.4-0.4,0.7-0.4c0.4-0.4,0.7-0.4,1.5-0.5
		c0.4,0.4,1.6,0.7,1.6,1.1c0.4,0,0.4,0,0.4,0.4l0.2,4.2l-9.9,22.3c-0.4,0.4-0.7,1.2-0.7,1.6c0,0-0.4,0.4,0,0.4l-0.7,1.6
		c-2.9,2.8-4.9,7.9-6.7,11.1c-2.4,4.7-5.6,11-10.3,15.1C366.5,223.5,360.9,226.1,354.3,224.1z"/>
	<path style="&st0;" d="M495.6,167.5c3.7-3.2,13.4-21.7,14.6-21.8c0.8,0,1.2,0.3,1.2,1.1c0.1,2.7-11.1,29.3-14.4,32.9
		c-2.2,2.4-6.8,16-8.2,18.4c-5.7,7.9-11.6,28.1-23.8,28.4c-1.9,0.1-3.8-0.2-6.2-1.2c-2-1-3.2-2.9-4.1-5.1l-3-6.3
		c-4.1-5.5-4.1-12-4.8-18.1c-0.3-5.3-0.5-10.7-1.2-16c-0.2-3.4-1.1-7.2-2.1-10.6c-0.4-0.7-0.1-1.5-0.5-1.5c-0.4,0-0.7,0.4-1.9,0.9
		l-11.2,12.8c-1,2-1.3,4.7-1.9,7c-0.3,1.5-0.6,3.1-1.3,4.7c-0.2,2.7-0.5,5-1.2,7.3c-2,5.5-4.8,10.2-9.3,13.1c-2.6,1.7-2.6,1.3-6,2.2
		l-1.9,0.1c-3,2.1-6.3,3-10.1,3.6l-0.8,0c-2.7,0.1-3.9-1.7-3.7-4.4c-0.4-1.1-0.1-2.3-0.9-3c-1.3-2.6-1.8-5.3-1.6-8l-0.8-16.4
		c0-7.3,0.8-14.6,1.6-21.9c-0.1-2.7-0.3-5.3,0.4-7.7c0.3-1.2,0.3-2.3,0.2-3.5c-0.1-1.1-0.1-2.7-0.6-3.8c-0.4-0.7,1.9,0.3,1.9-0.5
		c0-0.8-0.1-1.1,1-2c0.4-0.4,0.3-1.5,0.3-1.9c0.1-5.4,1-2,1.6-7c0.6-3.9,0.8-6.9,1-10.4c0-0.4,0.3-0.8,0.7-0.8
		c0.8,0.3,0.8,0.7,1.2,0.7s0.4-0.4,0.3-0.8l-0.2-4.2c0-0.8,0.7-1.9,1-3.1c0.4-0.4,0.3-0.8,0.7-0.8c1.5-0.5,3-1.3,3.7-2.9
		c0,0.4,0.4,0.4,1.2,0.3c0.4,0,0.7-0.4,1.1-1.2l1.1-0.1l9.7,1.8c3.9,0.9,5.9,3.1,6.1,6.2l0.1,1.9c-0.2,2.7-0.5,5-1.2,7.3
		c0,0.8-0.6,2.3-1,2.3c-1.5,0.5-1.5,0.8-1.8,2c-0.5,5.4-1.1,1.2-1.6,6.2l-0.9,3.9l0.1,1.1c0.4,0,0.7-0.4,1.1-0.4
		c0.4-0.4,0.4-0.4,0.7-0.4c0,0,0.4,0.4,0.4,0.7c-0.3,1.5,0.2,3.8-2.1,4.7c-0.7,0.4-1.5,1.2-1.8,2l0.1,1.9c1.2,0.7,1.6,1.4,1.6,2.2
		c0,0.8,0.1,1.1-0.7,1.9c-1.8,2-1.7,4.7-1.6,7c-0.3,0.8-0.3,1.5-0.3,2.3l0.4,7.2c0,0.4,0.4,1.1,0.9,1.9l0.1,1.5l1.8-1.2
		c2.4-5.5,7.2-8.8,11.2-12.8c3.6-3.6,7.3-7.3,10.9-10.5c2.6-2.4,5.1-5.6,8.1-6.9c2.2-1.3,5.2-2.2,7.9-2.3c1.1-0.1,2.3-0.1,3.5,0.2
		c0.8,0,1.2,1.5,1.3,2.2l0,0.4c-0.9,5.8-2.1,11.2-2.6,16.6c-1,3.5-0.4,6.9-1,9.6c-1.7,4.3-1.1,8.5-1.3,12.7
		c-0.3,1.9-0.6,3.9-0.4,6.1c0.5,2.3,0.6,4.9,1.5,7.2c1.7,3.7,4.2,7.1,6.3,10.8c0.8,1.5,2,2.2,3.2,2.1s2.2-2,2.9-2.8
		c6.9-7.6,9.9-15.4,14.8-24.5C487.6,184,493,169.9,495.6,167.5z M401,187.3l-0.9-3.4c0.1,1.1-0.3,1.9-0.6,3.1
		c0.4,1.1,0.5,2.3,0.6,3.4c0,0.8,0.4,1.1,0.8,1.5c0-0.8,0.3-1.2,0.3-1.5L401,187.3z M400.7,160.1l-1,2l0,0.8c0,0.8,0.5,1.5,0.9,2.2
		l0.6-2.3C401.2,161.2,400.7,160.5,400.7,160.1z M400.4,177l-0.4,0.4L400.4,177z M401,195.3c0-0.4-0.4-0.7-0.8-0.7l0,0.8
		c0,0.4,0,0.4,0.4,0.7C400.6,195.7,401,195.3,401,195.3z M404.2,176.4c0.4,0,0-0.4,0-0.4l-0.8,0c0,0.4,0.4,0.7,0.4,1.1
		C404.3,176.8,404.3,176.8,404.2,176.4z M405.4,169.1l-0.8,0l-0.6,3.1c0,0,0,0.4,0.4,0.7c0-0.4,0.4-0.4,0.3-0.8L405.4,169.1z
		 M406.2,163.3c-0.1-1.1-0.5-2.3-0.9-3c0-0.4-0.4-0.7-0.8-1.1c0,0.4-0.3,0.8-0.3,1.5c0.1,1.1,0.5,2.7,1,4.2l-0.4,0
		c0,0.8,0.5,1.5,0.5,1.9l0.7-1.6C406.3,164.4,406.3,164,406.2,163.3z M405,116.7c0,0.4,0,0.4,0.4,0.4l0-0.8
		C405,116.7,404.6,116.7,405,116.7z M405.8,154.1l1.1-1.2c-0.4-0.4-0.4-0.7-0.4-0.7l-1.1,1.2C405.4,153.8,405.8,154.1,405.8,154.1z
		 M405.4,116.3c0,0,0.4,0,0.4-0.4C406.1,116.2,405.7,116.3,405.4,116.3z M406.8,136.5l0.4,0.4L406.8,136.5z M408.6,187.6
		c-0.4-0.4-0.8-1.1-0.9-1.9c-0.3,0.8-0.7,1.2-0.7,1.9c0,0.8,0.5,1.5,0.5,2.3L408.6,187.6z M415,141c0.7-1.2,1-2,1.8-2.4
		c-0.8,0-1.2-0.7-1.2-0.7c-0.7,0.8-1.1,0.8-1.1,1.6S414.6,140.3,415,141z M417.1,143.2c0,0.4,0.4,0.7,0.4,0.7c0-0.4,0.3-0.8,0.3-1.5
		c0-0.4-0.4-0.7-0.4-1.1C417.4,142.1,417,142.8,417.1,143.2z"/>
	<path style="&st0;" d="M630,37c0.1,1.9-0.5,4.2-0.8,6.2c-0.9,3.9-1.5,7.3-2.1,11.6c-0.7,0.8-1.4,2.4-2.1,3.9
		c-1.7,3.9-3.4,7.4-5.2,11c-2.4,5.1-5.3,9.5-8,14.6c-2.8,5.1-5.2,9.8-7.2,15.3c-2.4,5.1-6.1,8.3-8.5,12.3c-2.1,3.2-5,6-7.2,9.5
		c-1.3,3.5-3.9,6.3-5.6,9.5c-1.1,1.6-2.9,3.6-3.9,5.2c-1.8,2.8-2.8,4.7-5.3,7.5c-0.7,1.6-1.4,3.1-1.7,3.9c-2.6,1.3-3.6,3.6-4.7,6
		c-1.4,2.4,1.3,3,0.7,5.7c-0.3,0.8-1,2-1,3.1c-0.6,3.9,0.4,7.6,0.2,11.8c-0.1,5-1.1,9.2-0.4,14.2c-0.2,3.8,0,7.6,0.2,11.8
		c0.5,1.5,0.9,1.9,1.3,3.4c0.2,3.1,0.3,6.1,0.5,9.5c3.8,22,12.5,12.7,19.5,7.8c2.4-5.5,4.9-8.3,8.1-13.8c2.1-4.3,14-24.8,15.4-28.7
		c4.5-8.6,9.9-16.2,13.6-25.2c0.6-2.7,4.4-3.7,6.7-4.6c0.4-0.4,0.7-0.4,1.1-0.4c0.4,0,0.4,0,0.4,0.4l0,0.4c-0.3,1.2-0.3,2.3-0.6,2.7
		c-1.4,2.7-2.8,5.1-3.8,7.8c0.1,1.5-1,2.7-2.1,4.3c-1.7,4.3-3.4,8.6-5.8,12.9c-2.5,4.3-13.2,26.3-16,30.7c-2.1,3.6-3.5,5.5-5.6,9.5
		c-1.7,5.1-4.8,9.8-8.1,13.8c-0.7,0.8-1.4,1.6-2.2,2.8c-3.3,3.6-6.2,5.7-9.5,7.8c-1.9,0.5-4.2,1-5.7,1.4c-0.4,0-0.8,0-1.1,0.1
		c-3.9-0.6-11.6-1.7-14.8-4.2c-1.2-1.8-2.8-3.3-4-4.4c-0.8-1.5-0.9-3-1.4-4.9c-0.9-2.2-1.4-4.9-3.4-7.1c-1.2-1.8-1.7-4.1-2.2-6
		c0-0.8-0.8-1.5-0.9-2.2c0.7-0.8,0.7-1.9,0.6-2.7c-0.1-1.1-0.5-2.3-0.6-3.4c0-0.4,0-0.4,0-0.8c-0.1-1.1-0.1-2.3,0.2-2.7
		c0-0.4-0.4-0.7-0.4-1.1c-0.9-1.9-1.6-1.8-1.7-3.7c0.2-3.8,0.3-8.4,0.5-12.6c-0.5-2.3-0.6-4.9-1.1-6.4c0-0.4,0-0.8,0-0.8
		c0-0.4,0-0.4-0.4-0.4l-0.4,0c-0.7,1.6-1.8,2.4-2.9,3.2c-1.8,2.4-4.3,4.8-6.9,6.5c-2.5,3.2-6.6,5.3-9.5,8.5c-1.1,1.6-2.6,2-4.8,2.9
		c-0.4,0.4-1.1,0.8-1.9,0.9c-2.6,1.3-5.2,2.2-7.9,2.3c-4.6,0.2-9.2-1.1-13.6-3.5c-2.8-2.2-4.9-5.5-5.4-8.9c0-0.8-0.1-1.5-0.1-2.3
		c-0.5-1.9-0.2-4.2,0.1-5.7c0.4-0.4,0-0.8-0.1-1.5c-0.4-0.7-0.4-1.1-0.5-1.9c-0.1-1.9,0.6-3.5,0.9-5.4c0.3-1.2,0.6-3.1,0.9-3.9
		c-0.4-0.7-0.1-1.5-0.1-2.3c0.6-2.3,0.9-4.6,1.2-7.3c1.1-1.6,1.7-4.3,2.4-6.2c0-0.4,0.3-0.8,0.3-1.2c-0.5-2.7,1.7-3.9,2.8-5.9
		c0.7-1.6,2.2-2.8,2.1-4.3l0-0.4c0-0.4,0.3-0.8,0.7-0.8c2.6-1.3,5.6-1.8,7.9-2.7c3.8-1.3,7.6-1.9,11.4-2.1c1.1-0.1,2.3-0.1,3.4-0.2
		c2.7,0.2,5,1.3,8.1,1.9c1.2,0.7,2.7,1,3.2,2.9c0,0.8,0.8,1.5,0.8,1.5c3.2,1.8,3.7,4.8,4.6,8.2c0,0.8,0.5,1.5,0.9,2.6
		c0,0.4,0,0.8,0,0.8c0,0.4,0,0.4-0.4,0.4c-1.1,0.4-1.8,1.2-1.8,2c-0.7,0.8-1.1,0.8-2.2,0.9c-0.8,0-0.8-0.3-1.2-1.1
		c-0.1-1.1-0.9-2.6-1.3-3.8c0,0,0-0.4,0-0.8c-2.4-2.6-4.8-4.7-7.6-6.1c-1.6-0.7-3.1-1-4.6-0.9c-1.9,0.1-3.4,0.9-4.9,2.2
		c-1.1,1.2-2.6,2-3.3,3.6c-3.6,5.2-4.8,10.2-6,16.4c-0.5,5-1,10.4-0.7,15.7c0,0.8,0.1,1.9,0.1,2.7c0.6,4.9,2.1,11,7.8,10.7
		c6.4-1.1,12.9-9.5,17.2-14.3c0.7-0.4,1.9-0.9,2.2-1.6c3.4-1.3,5.5-4.1,8-7.3c0.7-1.2,1.4-2.4,2.1-3.6c0-0.4,0.3-0.8,0.3-0.8
		c-0.4-0.4-0.8-0.7-0.8-1.1c-0.4-0.7,0.7-1.6,0.6-2.7c0.2-3.1,0.4-6.1,0.3-8.8c0.2-3.1,0.5-5.4,0.3-8.4c-0.2-3.8,0-7.3-0.5-10.7
		c-0.1-1.1,0.3-1.5,0.3-2.3c0.6-2.7,1.3-5,1.1-8.1c-0.1-1.1-0.1-1.9-0.5-3c0,0,0-0.4,0-0.8c2.2-2.8,1.6-6.6,1.8-10c0,0,0,0,0-0.4
		c0,0-0.4-0.4,0-0.8c-0.1-1.5,0.3-2.3,0.6-3.5c0-0.4,1.1-0.8,1.1-1.6c0.4-6.9,0.2-11.1,0.6-17.2c0.2-2.7,2.3-7,2.6-9.7
		c0.3-1.9,0.1-4.6,0-6.5c0.6-3.9,1.9-7.7,3.2-11.3c1.7-5.1,13.2-34.3,14.6-35.6c1-2.3,2.1-3.9,3.1-5.9c2.1-3.9,4.2-7.5,7-11.8
		c0.3-0.8,1.5-1.2,2.2-2.4c1.8-1.6,3.7-2.9,5.5-4.5c0.3-1.5,1.4-2,3-2.1c1.1-0.1,2.7,0.2,3.8,0.2c5.4,0.9,12.3,1.7,17.4,4.1
		c4.7,2.1,8.3,5.7,11.2,9c1.6,2.2,2.9,4.1,3.8,6.7c0.4,0.7,0.5,1.9,0.6,3.4c0.1,2.7,0.3,5.3,0.4,8c0.1,1.1,0.1,1.9,0.5,2.3
		C629.5,34.7,630,35.9,630,37z M505.4,165.1c0.2-2.7,0.9-5.8,2.6-8.2c-0.4,0-0.8,0-1.1,0.4c-0.7,1.2-1.4,2-1.4,3.5
		c-1.3,4.3-3.4,8.2-3.9,12.8c-0.4,0.4-0.3,1.5-0.6,2.3c-1.4,3.1-0.4,6.9-0.6,10.4c0,0,0,0,0,0.4c0.4-0.4,0.4-0.4,0.4-0.4
		c-0.1-2.7,0.5-4.6,0.8-6.9C502.4,174,504.1,169.7,505.4,165.1z M501.1,193.2c0-0.8-0.1-1.1-0.5-1.9c0,0.4,0,0.8-0.3,1.2
		c0.4,0.4,0.8,1.1,0.8,1.1S501.5,193.6,501.1,193.2z M509.8,153c0,0,0-0.4,0.4-0.4c-0.4,0-0.4,0-0.8,0L509.8,153z M510.4,151
		l0.4,0.4c0-0.4-0.1-1.1,0.3-1.5C510.8,150.3,510.8,151,510.4,151z M511.1,149.9c0.7-0.4,1.1-0.8,1.1-1.6c0-0.4,0-0.8-0.4-1.1
		C511.8,147.9,511.5,149.1,511.1,149.9z M513.2,145.9c-0.4,0-0.3,0.8-0.3,1.2c0.4-0.4,0.7-0.4,0.7-0.4c0.4-0.4,0.7-0.8,0.7-1.2
		C514,145.5,513.6,145.5,513.2,145.9z M514.2,149.3c-0.4-0.4-0.4-0.4-0.4-0.4S513.8,149.3,514.2,149.3z M516.2,144.6
		c0,0,0,0,0.4,0.4c0-0.4,0-0.4,0-0.4l0-0.4L516.2,144.6z M516.6,145.7c0,0,0,0,0,0.8c0.4,0,0.4-0.4,0.4-0.4
		C517,145.7,516.6,145.7,516.6,145.7z M553.5,81.5c-0.4,0-0.4-0.4-0.8-0.3l-0.4,0.4c0,0.4,0.4,0.4,0.4,0.4
		C553.1,81.9,553.1,81.9,553.5,81.5z M556.2,66.4c0.3-0.8,0.7-1.9,1-2.7l0-0.4C556,63.4,556.1,64.5,556.2,66.4z M561.2,60.8
		c0,0,0,0,0,0.4c0.4,0,0.4,0,0.4,0c0-0.4,0-0.4,0-0.4C561.2,60.8,561.2,60.8,561.2,60.8z M561.4,63.1c0,0,0,0.4,0,0.8
		c0.4,0,0.7-0.4,1.1-0.8c0.7-0.4,1.5-1.2,1.4-2.7c0-0.4-0.1-1.1-0.5-1.9c-0.3,1.2-0.2,3.1-2.1,3.6C561.3,62.4,561.3,62.7,561.4,63.1
		z M561.9,58.9c0,0,0,0.4,0,0.8c0-0.4,0.3-0.8,0.3-0.8c0-0.4-0.4-0.4-0.4-0.7C561.9,58.5,561.9,58.5,561.9,58.9z M569.9,140.7
		c-0.4,0.4-1.1,0.4-1.5,0.8l-0.4,0c-3,1.7-4.4,3.3-3.9,6.7c0,0,0,0.4,0.4,0.4c0.4,0,0.8,0,1.1-0.4c0.7-1.6,1.8-3.1,2.8-5.5
		C569.2,141.9,569.6,141.1,569.9,140.7z M621.2,35.9c-0.5-1.5-0.9-2.6-1.4-4.1c-0.8-0.7-1.2-1.5-1.3-2.6c-0.9-2.6-1.1-7.2-1.5-7.6
		c-2.7-0.6-5.4-0.9-8.1-1.1c-2.3,0.1-4.6,0.6-6.4,1.9l-0.4,0c-0.4,0-0.8,0-0.8-0.3c-0.4,0-0.8-0.3-1.2-0.3c-0.4,0-0.7,0.4-0.7,1.2
		c0,0.4,0,0.4,0,0.8c0,0.8-0.3,1.2-0.7,1.6c-2.2,2-4,4-5.4,6.4l-0.3,2.3c0.6,3.4-4.2,8.2-4.4,11.7c-0.6,2.7-8.1,29.1-8.4,30.3
		c-0.6,2.7-2.4,5.9-3,7.8c0.2,3.4-0.8,6.5-1.8,9.7c-0.6,3.5-2.3,7.4-2.9,11.2c-1.5,7.7-3.1,14.3-5.7,22.1c-1,2.3-0.9,4.6-1.6,7
		c-0.6,3.1-1,2.7-0.5,5c0,0.4,0,0.8,0.1,1.1c0,0,0-0.4,0.4-0.4c0.4-0.4,0.7-0.8,0.7-0.8c4.3-5.2,7.6-8.4,11.6-13.2
		c2.9-3.2,3.8-7.1,6.7-10.7c1.4-2.4,3.2-5.5,5.3-7.9c1.8-2.8,3.5-6.7,5.6-9.5c2.9-2.4,10-20.8,11.3-25.1c2-5.5,7.1-10.3,9.5-16.6
		c2-5.5,3.7-9,4.6-15.2C620.9,39,621.2,37.5,621.2,35.9z M564.7,54.5c0,0,0,0,0,0.4c0,0,0,0,0.4,0l0-0.4
		C565.1,54.5,565.1,54.5,564.7,54.5z M597.5,14.2l0.4,0c1.9-0.5,4.9-0.6,6.4-1.1c1.1-0.4,2.3-0.5,3.8-0.6c0.4,0.4,0.8,0,1.1-0.4
		c-0.4,0-0.4,0-0.8,0c-0.8-1.5-2-1.8-3.2-1.8c-2.3,0.1-6.8,1.9-7.9,3.5L597.5,14.2z M611.1,18.5c-0.4,0-0.4,0-0.8,0
		c-0.4,0-0.7,0.4-1.1,0.4c0.4,0.4,0.8,0.3,1.2,0.7c1.9,0.3,5,0.5,6.6,2c0-0.4,0-0.4,0-0.8C616.5,19.7,613,18.4,611.1,18.5z"/>
	<path style="&st0;" d="M670,205.2c-3.3,3.2-12.3,12.9-17.8,11.2c-3.5-1.3-7.2,1.1-10.8-1c-1.2-0.7-3.5-0.6-5-0.5
		c-4.2-0.5-8.1-2.3-11.3-4.8c-1.6-1.1-2.5-3.3-3.3-5.2c-0.5-1.9-1.7-3.7-1.1-6.1c0.7-1.9-0.2-3.8-0.7-5.7c-0.1-2.7-0.7-5.7-0.8-8.8
		c0-0.4-0.1-1.1,0.3-1.5c1.4-2,0.5-4.2,0.1-6.1c1.5-8.5,3.3-17,5.2-25.5l2-5.8c0.7-1.9,1.7-3.5,2.8-5.1l2.1-3.9
		c0-0.4,0.7-0.8,1.1-0.8l3.3-3.6c0.4-0.4,0.3-1.5,0.3-2.3c0-0.4,0-0.8,0.3-1.2l4.4-3.3l1.1-0.8c1-2.7,3.3-2.5,5.6-3
		c1.5-0.1,3.4-0.6,5-0.3c4.3,0.9,9.5-1.3,13.1,2c2,1.4,4,4,4.9,6.3c0.9,2.6,0.7,5.3,1.2,8c0.5,1.9,1,3.8,1.8,5.3
		c1.7,3,0.7,6.1-0.7,8.8c-1.8,3.1-3.5,6.3-6,9.1c-2.2,2.8-5.5,4.9-8.4,6.9c-5.2,2.9-10.5,4.4-16.3,3.5c-1.9-0.3-3.4,1.7-2.1,3.6
		c0.8,1.5,0.5,2.7-0.5,4.2c-1.4,2.4-1.7,5.1,0,7.6c0.4,0.4,0.1,1.9-0.3,2.3c-1.4,2.7-0.9,4.6,0.7,6.8c0.8,1.5,0.9,3,0.6,4.9l0,0.8
		c0.1,1.9-0.5,4.2,1.8,5.3c2.7,1,5,0.5,7.2-1.1c1.8-1.6,4-3.3,5.8-5.3c16.7-17.3,32.5-44.5,46.8-64c0.7-0.8,1.4-2,2.6-1.7
		c1.9-0.1,1.7,2.6,1,4.5c-4.1,9.8-11.3,25.1-16.2,34.5l-8.4,14.6l-2.4,4.7C676.1,197.2,673.3,201.6,670,205.2z M642.9,160.7
		c0.1,1.1,0.5,2.3,2,1.4l8.5-6.2c0.4-0.4,0.7-0.8,0.7-1.6c2-5.5,4-10.9,3.7-16.6l-1.3-3.4c-0.1-1.9-1.6-1.1-1.9-0.7l-5.4,6
		c-3.2,5.1-2.8,11.6-6.4,16.4C642.7,158,642.4,159.5,642.9,160.7z"/>
	<path style="&st0;" d="M786.4,139.1c-2.3,7.8-49.4,89-62.3,89.3c-5,0.3-17.5-6-18.4-14.7c0-0.4,0-0.8,0.7-1.2
		c-0.9-1.9-1.7-4.1-1.8-5.6c-0.1-2.3,0.1-4.6,0.4-6.5c1.5-7.3,4.6-22.8,9.8-33c3.4-7.4,5.9-11.4,8.4-23.4c-0.8,0-0.3,0.8-1.8,1.6
		c0.3-1.2,0.7-1.9,0.6-2.3c0-0.8-2.6,0.9-3,0.5c-3.4,0.2-1.8,2.4-6.4,2.6c-2.3,0.1-25.8,10.9-29.4-13.8c0-0.4,0-0.4,0-0.8
		c-0.8-14.9,8-38.3,22.5-39l0.4,0c4.6-0.2,12.2,0.1,12.7,8.9c0,0.4,0,0.8,0.1,1.1c0.2,3.8-1.2,7.3-1.4,10.4c0.1,1.9-4.7,12.1-4.4,19
		c0,0.4,0,0.4,0,0.8c0,0.8,0.4,0.7,1.9,0.7c4.2-0.6,9.4-2.4,13.6-2.6c4.2-0.2,9,3.7,12.4,4c3.2,3.3,5,7.8,5.2,12l0,0.4
		c0.3,6.1-5.6,10.6-10.4,20.8c-0.6,2.3-0.9,5.4-1.9,8.5c-1.1,0.1-1.2-0.3-1.2-0.7c0-0.4,0.3-0.8,0-0.8c-0.8,6.5-3.7,9-3.9,14.4
		c0,0.8,1.2,1.8,1.3,2.2c0.4,0,1.1-0.4,1.5-0.8c0.4,0.4,0.8,1.1,0.9,1.9c0.1,1.5-8.4,1.2-8,8.4c0.1,1.9,1.3,3.4,1.4,4.9
		c0.1,1.1,0.1,2.7,0.2,3.8c0,0.8,0.1,1.1,0.1,1.5c0.1,1.5,1.4,4.1,4,4c0-0.4,0-0.4,0-0.8c-0.1-2.3-2.5-4.5-2.6-6.4
		c-0.1-1.1,0.5-11.9,1.3-11.9c0.4,0,0.4,0,0.8,0.3c0.2,4.2,0.1,9.2,0.3,13.4c0.4,0.7,1.4,4.1,2.9,4.1c3.8-0.2,39.6-62.1,40.6-65.6
		c0.4,0,9.4-11.2,10.5-11.3l0.4,0C785.5,137.3,786,139.2,786.4,139.1z M712.3,113.1c1-2.3,1.3-4.3,1.2-5.8c-0.3-5-4.2-7.4-8-7.2
		c-10.7,0.5-13.4,14.8-12.8,25.5c0,0.4,0.1,1.1,0.1,1.5c0.1,1.1,0.1,2.7,0.2,4.2c0.1,2.7,0.6,4.9,4.1,5.1c5.7-0.3,3.8-1.3,7.7-6.9
		L712.3,113.1z M711,206.5c0,0-0.4,0-0.4-0.4c-0.4,0.4-0.7,0.4-0.7,0.8c0,0.4,0.4,0.4,0.4,0.4C710.7,207.3,711,206.9,711,206.5z
		 M710.9,197.3c0.4-0.4,0.7-1.2,0.7-1.2s-0.4,0-0.4-0.4c0,0.4-0.4,0.4-0.4,0.4C710.9,197,710.9,197,710.9,197.3z M711.1,201.1
		c0,0.4,0.4,0.4,1.2,0.7c-0.1-1.1-0.1-2.3,0.3-2.3c0-0.4-0.4-0.7-0.4-1.1C711.8,199.6,711.1,201.1,711.1,201.1z M711.6,195.8l0-0.4
		C711.6,195.4,711.6,195.4,711.6,195.8z M713.5,202.9l-0.4-0.4c-0.3,0.8-0.7,1.2-1.1,1.6c0,0,0,0.4,0.8,1.1
		C712.8,204.1,713.2,203.7,713.5,202.9z M714.8,190.2c0.4,0,0.4,0,0.4,0.4C715.2,190.6,714.8,190.6,714.8,190.2z M715.4,186.8
		c0,0.4,0,0.8,0.1,1.1c1.8-1.2,1.3-3.5,2-5.1c0-0.4-0.4-0.7-0.8-1.1c0,0.4-0.3,1.5-0.6,2.3c0.4,0.7,0.4,1.1,0.4,1.1
		C715.3,185.6,715.3,186.4,715.4,186.8z M720.7,194.2c0,0-1.9-0.3-2-2.2c-1.1,1.6-0.6,3.1-2.9,3.6c0.8,1.1,1.3,2.2,1.7,3.7
		c0,0-0.4,0.4-0.3,1.2c0.4,1.1,0.9,3.4,1,3.8c0.1,2.7-0.9,4.3-0.8,6.5c0.4,1.1,0.8,1.5,1.6,2.2c0-0.4,0-0.8-0.1-1.1
		c-0.2-3.4,0.8-7.7,0.6-10.7c0-0.8-1.2-1.8-1.4-4.5c0,0,0.7-0.4,1.1-0.8C720,195.3,720.8,194.9,720.7,194.2z M717.5,212.7
		c0,0.4-0.4,0.4-0.3,1.2c0.4,0.4,0.8,0.7,0.8,1.5l0.4-0.4C718.3,214.2,717.5,213.8,717.5,212.7z M719.1,178.5c0-0.4,0-0.8-0.4-1.1
		c0,0.4,0,0.4,0,0.4c0,0.4,0,0.4,0,0.8C718.8,178.6,718.8,178.6,719.1,178.5z M720.1,175.4c-0.4,0-0.7,1.2-1.1,1.6
		C719.4,176.6,719.8,176.2,720.1,175.4z M721.1,171.9c0,0,1.8-1.2,1.8-2.4c0-0.8-0.1-1.1-0.1-1.1c-0.1-1.5,0.9-4.6,1.3-5
		c-0.4,0.4-0.7,0.4-1.1,0.8C721.2,166.6,720.9,168.5,721.1,171.9z M722.3,180.7c0,0,0,0,0,0.4L722.3,180.7z M723.6,182.5
		c0.4,0-0.4,0-0.4,0.4c0,0,0.4,0.4,0.4,0.7C723.6,183.3,723.6,182.9,723.6,182.5z M724,197.8c0,0,0,0.4-0.4,0.4c0-0.4,0-0.4,0-0.4
		L724,197.8z M725.9,175.1c0,0,0,0-0.4-0.4c0,0.4-1.8,2.8-1.7,4.3l1.1-0.1C724.8,177.5,725.5,176.3,725.9,175.1z M726.4,163.6
		l-0.4,0L726.4,163.6z M727.7,166.3c0,0.4,0.8,0.7,0.8,0.7c1.1-0.1,1.9-0.5,3-1.3c0,0-2.4-1.8-2.4-2.6
		C728.4,164.7,728,165.5,727.7,166.3z M728.5,159.3c0.8,0.3,1.2,0.7,1.6,0.7c0,0,0.4-0.4,0.3-0.8c0-0.4,0-0.8-0.4-1.1
		C729.6,158.5,729.2,158.9,728.5,159.3z M728.7,177.7c0,0.4,0,0.8,0.1,1.1s0.4,0.4,0.8,0.3s0.8,0,1.1-0.4c-0.4-1.1-1.2-1.5-1.6-1.8
		C728.6,177.3,728.6,177.3,728.7,177.7z M730.4,173.8c0,0.4,0,0.4,0.8,1.1c0-0.8,0.3-1.5,0.3-1.9c0,0-0.4-0.4-0.8-0.3
		C730.7,173,730.4,173.4,730.4,173.8z M732.1,161.8c0,0,0,0,0.4,0c-0.4,0-0.4,0-0.8,0C732.1,161.8,732.1,161.8,732.1,161.8z
		 M731.9,165.3c0.4,0.4,0.4,0.4,0.8,0.7c0-0.4,0.4-0.4,0.4-0.4c-0.4-0.4-0.8-0.3-0.8-0.3C731.9,165.3,731.9,165.3,731.9,165.3z
		 M734.6,166.7c-0.3,0.8-0.7,1.2-1.1,1.2c0.4,0.4,0.4,0.4,0.4,0.4C734.3,167.8,734.6,167.4,734.6,166.7z M733.8,172.8
		c0,0.4,0.4,0.7,0.8,1.5C734.2,173.6,734.2,172.8,733.8,172.8z"/>
</g>
<g>
	<path style="&st0;" d="M437.1,346c0.1,3.1,0.6,6.2,0.8,9.4c0.1,0.6-0.1,1.2-0.2,1.7c-0.2,0.6-0.6,1.2-0.8,1.9
		c-0.7,2.2-1.7,2.5-3.7,1.4c-0.6-0.4-1.2-0.5-1.9-0.6c-1.3-0.2-2.4-1.2-2.5-2.5c-0.2-2.2-0.5-4.3-0.6-6.5
		c-0.4-5.4-0.6-10.8-0.8-16.1c-0.1-3.5-0.1-7-0.1-10.4c0.1-5.5,0.1-11,0.2-16.7c0.2-4.2,0.6-8.5,1-12.7c0.1-3,0.2-5.9,0.6-8.8
		c0.2-2,0.7-4,1.4-5.9c0.5-1.3,1.9-1.7,3.1-1.6c2.4,0.4,4.6,0,6.6-1.3c0.7-0.4,1.6-0.6,2.3-0.6c4.2,0,8.4-0.1,12,2.5
		c0.7,0.6,1.6,1.1,2.3,1.8c0.5,0.5,0.8,1.1,1,1.7c0.5,3.1,0.1,5.9-2,8.4c-3.1,3.5-6,7.2-9.1,10.7c-1.3,1.6-2.8,2.9-4.2,4.2
		c-0.6,0.5-0.8,0.8-0.1,1.3c2.5,1.6,4.2,3.8,5.8,6.2c1.6,2.8,2.9,5.6,4.4,8.5c0.6,1.2,1.4,2.4,2,3.7c1.2,2.5,2,5.3,2.4,8.2
		c0.1,1.2,0.7,2.3,0.8,3.5c0.4,1.6,0.5,3.1,0.7,4.7c0.6,3.1,1.3,6.1,1.8,9.2c0.2,1.2,0.2,2.5,0.4,3.7c0.1,1,0.5,1.9,0.6,3
		c0,1-0.2,2-0.2,3c-0.1,1.6-0.2,3.1-1.3,4.4c-0.8,1-1.4,1.2-2.8,0.7c-1.3-0.4-2.6-1-4.1-1.1c-1.3-0.1-1.8-0.8-1.9-1.9
		c-0.4-1.7-0.8-3.4-0.8-5c0-6.6-0.8-13.1-2.5-19.3c-1.7-6.5-3.8-12.7-6.8-18.6c-0.6-1.3-1.3-2.8-2-4c-0.2-0.4-0.7-0.5-1.1-0.8
		c-0.1,0.5-0.4,0.8-0.4,1.2c0,4,0,8,0,12.1C437.1,334.6,436.9,340.3,437.1,346z M430.3,344.9c0.4,3.4,0.7,6.6,1.1,9.8
		c0.1,0.4,0.5,0.7,0.7,1c0.1-0.4,0.2-0.7,0.2-1.1c-0.1-3.2-0.4-6.6-0.6-10c-0.1-1.4,0-2.9-0.2-4.3c-0.6-3.8-0.4-7.6-0.2-11.4
		c0-1.6-0.4-3.2-0.7-4.8c0-0.1-0.2-0.4-0.5-0.5c0,0.2-0.2,0.4-0.2,0.6c0,4-0.2,7.8,0.2,11.8c0.4,3,0.2,6,0.4,8.9
		C430.3,344.9,430.3,344.9,430.3,344.9z M433.7,347.4h0.1H433.7z M434.2,350.8c0,0-0.1,0.1-0.1,0.2l0.1,0.1c0.1-0.1,0.1-0.1,0.2-0.2
		C434.3,350.9,434.3,350.8,434.2,350.8z M447,282c-1.4-0.8-3.4-1-5-0.1c-0.7,0.4-1.2,1-1.1,1.9c0,0.7-0.2,1.4-0.2,2.3
		c-0.1,0.8-0.1,1.7-0.1,2.6c0,0.8,0,1.8-0.1,2.6c-0.7,3-1.6,6-2.3,9.1c-0.1,0.4,0.1,1,0.2,1.4c0.5-0.4,1.1-0.5,1.4-1
		c1.3-1.6,2.8-3.1,4.1-4.8c2.4-3.1,4.2-6.5,4.7-10.7C448.1,284.3,448,282.4,447,282z"/>
	<path style="&st0;" d="M467.2,331.9c0.1-3.4,0.2-6.7,0.5-10.1c0.4-6.1,0.6-12.2,1.1-18.4c0.2-4.7,0.7-9.2,1.2-13.8
		c0.1-1.2,0.1-2.4,0.4-3.6c0.6-2.4,2.5-3.4,4.9-2.8c0.4,0.1,1,0.1,1.2,0c1.3-1.6,3.4-1.4,5.3-1.7c2.8-0.5,5.8-0.7,8.8-0.8
		c1.3-0.1,2.8,0.1,4.2,0.2c0.7,0.1,1.2,1.6,0.8,2.2c-0.4,0.5-0.7,1-1.2,1.1c-3.6,1.2-7,2.9-10.9,3.1c-0.6,0-1.2,0-1.7-0.1
		c-1.4-0.4-1.8-0.2-1.2,1.2c0.8,1.8,0.6,3.5,0.2,5.4c-0.7,5.4-1.1,10.8-1.7,16.2c-0.1,1.2,0.2,1.6,1.6,1.1c2.2-0.7,4.3-1.4,6.5-2.4
		c1.1-0.5,2.3-0.2,3,0.7c0.4,0.5,0.5,1.4,0.2,1.9c-1.3,1.9-2.4,4.3-4.8,5c-1.8,0.6-3.8,1-5.8,1c-0.8,0-1.2,0.1-1.2,0.8
		c0,3,0.1,6.1,0,9.1c-0.1,2.9-0.5,5.6-0.4,8.5c0,3.4-0.5,6.5-0.2,9.8c0.5,3.8,1.3,7.6,3,11c0.6,1.2,1.3,1.6,2.6,1.7
		c3.7,0,7-1.1,10.1-2.4c1-0.4,2.8,0.1,3.2,1.1c0.4,0.5,0.1,1.4-0.1,2c-1.2,2.2-3.2,3.2-5.5,3.7c-1.3,0.4-2.6,0.5-4,0.6
		c-3.6,0.5-7.2-0.1-10.6-1.7c-4.8-2.2-8.2-5.8-9.2-11c-0.4-1.6-0.6-3.1-1.1-5.4C466.7,341.3,466.8,336.6,467.2,331.9z M472.8,348.4
		c0.1-0.5,0.4-0.8,0.4-1.3c0-2.4,0.1-4.9,0.1-7.4c0-0.7,0-1.4,0.1-2.3c0-0.1-0.1-0.4-0.4-0.6c0,0.2-0.1,0.4-0.2,0.5
		c-0.1,0.4-0.2,0.7-0.1,1.1c-0.1,3-0.2,5.9-0.2,9.2C472.5,347.5,472.7,348,472.8,348.4z M473.5,321.7c-0.1,0.2-0.2,0.5-0.2,0.8
		c-0.2,2.6-0.4,5.4-0.5,8c-0.1,0.4,0.2,0.7,0.4,1.1c0.1-0.4,0.2-0.6,0.4-1c0.1-2.6,0.2-5.4,0.2-8.3
		C473.8,322.3,473.7,322.1,473.5,321.7z M473.5,333.4c0.1-0.1,0-0.2-0.1-0.4c0,0.1-0.1,0.1-0.1,0.2c0,0,0,0.1,0,0.2
		C473.4,333.5,473.5,333.4,473.5,333.4z M474,316.7c0-0.1-0.1-0.1-0.1-0.2c-0.1,0.1-0.2,0.1-0.2,0.2c0,0,0.1,0.1,0.2,0.2
		C473.9,316.8,474,316.7,474,316.7z"/>
	<path style="&st0;" d="M499.8,339.5c0-1.6,0.1-3,0.1-4.4c-0.1-1.7-0.5-3.2-0.5-4.9c0-1.8,0.1-3.7,0.2-5.6
		c0.5-5.9,0.8-11.9,1.7-17.6c0.8-6.7,2.4-13.2,5.2-19.4c2.5-5.6,6.6-9.4,12.7-10.7c2.4-0.5,4.7-0.7,7.1,0.1c0.6,0.2,1.3,0,1.8,0.2
		c1.8,0.7,3,1.8,3.4,3.8c0.6,3.1,0.7,6.1,0.4,9.1c-0.2,1.8-0.5,3.6-0.5,5.4c-0.1,0.8-0.4,1.3-1.1,1.7c-1.8,1.3-3.6,2.5-5.5,3.7
		c-0.2,0.2-0.6,0.4-1,0.5c-0.1-0.4-0.2-0.7-0.2-1.1s0.1-0.7,0-1c-1.6-3.8-1-7.8-1.3-11.8c0-0.4,0.1-0.6,0-0.8
		c-0.1-0.5-0.5-1-0.7-1.3c-0.4,0.2-0.8,0.6-1.1,1c-3,4-4.6,8.6-6,13.2s-2.3,9.2-2.8,13.9c-0.1,0.8-0.4,1.7-0.5,2.4
		c-0.4,2.9-0.8,5.6-1.1,8.4c-0.2,1.9,0,3.8,0,5.8c-0.1,3.5-0.1,6.8-0.2,10.3c0,0.2-0.1,0.5-0.4,0.7c-0.2,0.5-0.7,0.7-1,1.2
		c-0.1,0.4,0,0.7,0,1.1c0.2-0.2,0.5-0.5,0.6-0.6c0.1-0.1,0.2-0.2,0.4-0.4c0.1,0.2,0.4,0.4,0.4,0.6c0,1.7,0.1,3.4,0.1,5.2
		c0,0.1-0.1,0.2-0.1,0.4c0.5,2.4,1,4.7,1.6,7c0.1,0.4,0.2,0.7,0.4,1.1c0.5,1,1.2,1.2,2,0.5c1.2-1.1,2.4-2,3.4-3.2
		c4.4-4.9,8.8-9.8,12-15.6c2.9-5,5.8-10.1,7.9-15.5c0.4-0.8,0.7-1.7,1.2-2.4c0.2-0.4,0.7-0.6,1-0.8c0.2,0.4,0.6,0.8,0.6,1.1
		c-0.7,4.1-0.7,8.3-2.9,12c-1.1,1.8-2,3.7-3.1,5.6c-0.5,0.7-0.2,1.3,0,2.2c0.2,1.6,0.4,3.1,1.1,4.4c0.1,0.2,0,0.8-0.2,1.1
		c-1.1,1.4-2,2.9-3.1,4.3c-0.7,1.1-1.4,2.3-2.3,3.2c-1.4,1.9-2.9,3.7-4.4,5.5c-0.5,0.6-1.3,1-2,1.3c-2.3,1-4.2,2.9-7,2.5
		c-1.9-0.1-3.8-0.6-5.8-1.1c-0.7-0.1-1.3-0.4-2-0.6c-2.8-0.7-5-2-6.4-4.9c-0.8-2-1.8-6.1-1.9-8.4C499.8,345,499.8,342.2,499.8,339.5
		z M502,328c0,0.2,0,0.4,0,0.5c0.1,0.2,0.1,0.5,0.2,0.7c0.1-0.1,0.2-0.4,0.4-0.6c0.1-0.1,0.1-0.4,0.1-0.5c0.1-0.6,0.1-1.2,0.1-1.8
		c0-0.1-0.4-0.1-0.4-0.1c-0.2,0.6-0.4,1.2-0.6,1.8H502z M502.5,343.8h-0.1l0.1,0.1V343.8z M504.7,332.2c0-1,0-1.9-0.1-2.8
		c0-0.4-0.2-0.7-0.4-1c-0.2,0.2-0.6,0.5-0.7,0.8c-0.1,0.2,0,0.6,0.1,1c0,0.7,0.1,1.4,0.1,2.2c-0.1,1.8-0.2,3.7-0.4,5.6
		c-0.1,0.5,0,1.1-0.2,1.4c-0.5,0.7-1.6,1.4,0.1,2c0,0,0,0.4,0,0.5c0,1.6,0,3.1,0.1,4.7c0,3.4,0.5,6.7,1.6,9.8
		c0.1,0.4,0.5,0.6,0.7,0.8c0-0.4,0.2-0.6,0.2-1c-0.2-1.9-0.6-3.8-0.8-5.9c-0.1-0.6,0.1-1.2,0.1-1.9c0.2,0.6,0.4,1.2,0.6,1.9
		c0.5,1.9,1,3.8,1.4,5.8c0.1,0.4,0.5,0.6,0.7,0.8c0-0.4,0-0.6,0-1c-0.5-2.8-1.3-5.5-1.3-8.4c0-2.2,0-4.3-0.1-6.6
		c0-0.5,0.1-1.2-0.7-1c-1.2,0.5-1.2-0.4-1.2-1.1c0-2.3,0-4.7,0-7C504.6,332.2,504.6,332.2,504.7,332.2z M504.7,322.7
		c0.1-0.1-0.1-0.2-0.2-0.4c-0.1,0.1-0.2,0.2-0.2,0.5c-0.1,0,0.1,0.2,0.2,0.5C504.6,322.9,504.7,322.8,504.7,322.7z M504.9,326.8
		c0-0.1-0.1-0.2-0.2-0.5c-0.1,0.1-0.4,0.2-0.4,0.4c0,0.2,0.1,0.5,0.4,0.8C504.7,327.1,505,327,504.9,326.8z M505.2,319.3
		c0-0.2,0.1-0.5,0-0.6c0-0.2-0.2-0.5-0.4-0.7c-0.1,0.2-0.2,0.4-0.4,0.6c-0.1,0.1-0.1,0.4-0.1,0.5c0.1,0.6,0.4,1.1,0.5,1.7
		c0.1-0.5,0.4-1,0.5-1.4C505.2,319.3,505.2,319.3,505.2,319.3z M505.8,336.8c0-0.1-0.1-0.2-0.1-0.4c-0.1,0.1-0.2,0.1-0.2,0.1
		c0,0.1,0,0.2,0.1,0.5C505.7,337,505.8,336.8,505.8,336.8z M508.9,344.8c-0.1,0-0.1,0-0.2,0c0.1,0.2,0.2,0.4,0.4,0.6
		c-0.2,0.1-0.4,0.4-0.6,0.6c0.1,0,0.1,0.1,0.2,0.1c0.1-0.2,0.2-0.5,0.4-0.7C508.9,345.1,508.9,344.9,508.9,344.8z"/>
	<path style="&st0;" d="M546.6,323.4c0.4-4.4,0.5-8.5,0.8-13c0.2-4,0.6-7.9,1.2-11.9c0.5-4.3,1.1-8.8,1.7-13.1
		c0.1-0.6-0.1-1.2,0-1.7c0.4-2,2.4-3.6,4.6-3.5c4.1,0.5,6.8,4.2,6.1,8.6c-0.4,2-0.8,4.1-1.2,6.1c-0.4,2.4-0.6,4.9-0.7,7.4
		c-0.4,3.8-0.8,7.7-1.1,11.5c-0.1,1.9,0.2,3.8,0.2,5.8c0,0.7-0.4,1.3-0.5,2c-0.4,3.1-0.6,6.2-0.7,9.4c-0.2,2.9-0.2,5.8-0.4,8.8
		c0,0.6-0.1,1.2-0.1,1.8c-0.1,2-0.2,4-0.2,5.9c0,0.6,0.7,1.2,0.7,1.8c0,2.6,0,5.3-0.2,7.9c0,0.4-0.8,1.1-1.3,1.2
		c-1,0.1-2.4,0.8-3.1-0.6c-0.1-0.1-0.5-0.1-0.6,0c-1.4,0.6-2.5-0.6-3.6-1c-1.9-0.8-2.6-2.8-2.8-4.8c-0.2-1.6-0.1-3.1-0.1-4.9
		c0,0-0.1,0-0.2,0C545.5,339.2,546.1,331.3,546.6,323.4z M553.5,330.2c-1.2-0.8-1-1.9-0.8-3.2c0.1-1.9,0.2-4,0.4-6
		c0-0.2-0.2-0.4-0.2-0.6c-0.2,0.2-0.4,0.4-0.5,0.6c-0.5,3.2-1,6.2-1.1,9.4c-0.4,4.2-0.5,8.6-0.6,13c0,1,0.1,1.8,0.2,2.6
		c0,0.2,0.2,0.4,0.4,0.6c0-0.2,0.2-0.4,0.2-0.6c0.1-1.3,0.1-2.5,0.1-4c0.1-1.1-0.1-2.4,1.1-3.2c0.2-0.2,0.2-0.7,0.2-1.1
		c0.1-1.2,0.1-2.4,0.2-3.6c0-1.1,0.1-2.2,0.1-3.1C553.3,330.6,553.6,330.2,553.5,330.2z M551.2,350.9c0-0.5,0-1,0-1.3
		c0-0.1,0-0.5,0-0.8c0-0.1,0-0.2-0.1-0.4c-0.1,0.1-0.4,0.2-0.5,0.4c0,0.4,0,0.7,0,1.1C550.7,350,550.9,350.4,551.2,350.9z"/>
	<path style="&st0;" d="M576,348.8c0,1.6,0,3.2-0.1,4.8c-0.2,2.6-0.6,5.3-0.8,7.9c-0.1,0.4-0.1,0.8-0.4,1.1c-0.4,0.7-0.8,1-1.3,0.1
		c-0.6-1-1.1-1.9-1.7-2.9c-0.1-0.2-0.4-0.4-0.6-0.5c-0.1,0.2-0.4,0.5-0.4,0.7c0,2.2,0.1,4.3,0.1,6.6c0,0.2-0.2,0.6-0.4,0.7
		c-1.6,0.6-3,0.2-4.4-0.2c-0.4-0.1-0.6-1-0.6-1.4c0-2.3,0.1-4.6,0.2-6.8c0.1-4,0.2-8,0.4-12c0.2-5,0.5-10.1,0.5-15.1
		c0.1-3.2,0-6.6,0-9.8c0.1-8.2,0.1-16.4,0.2-24.6c0-3.4-0.1-6.6,0-9.8c0-1.6,0.2-3,0.5-4.6c0.1-1.8,1.4-2.9,2.5-4
		c0.6-0.5,1.3-0.8,1.8,0c0.5,0.8,1.2,0.7,1.9,0.4c0.8-0.4,1.7-0.8,2.5-1.2c3.6-1.4,7.2-1.1,10.6,0.5c1.8,0.8,3.5,2.4,4.7,4
		c1.3,2,2.3,4.4,3.2,6.6c1.1,2.6,1.6,5.4,1.9,8.2c0.4,4-0.4,7.7-1.3,11.4c-0.4,1.7-0.7,3.2-1.1,4.9c-0.1,0.2-0.2,0.6-0.4,0.7
		c-1.2,0.6-1.1,1.9-1.8,2.8c-2.3,3-3.6,6.8-7,9.1c-0.4,0.2-0.6,0.5-1,0.8c-0.5,0.5-1,0.8-1.6-0.1c-0.4-0.7-0.7-0.5-1,0.1
		c-0.2,0.4-0.6,0.7-0.7,1.1c-0.4,0.7-0.7,1-1.6,1c-2.2,0.1-2.6,0.6-2.8,2.8c0,1.7,0,3.2,0,4.9h0.1
		C576.4,340.8,576.1,344.8,576,348.8z M568.3,360.6c-0.1,0-0.1,0-0.2,0v0.1l0.1,0.1C568.3,360.7,568.3,360.7,568.3,360.6z
		 M568.2,354.2c0,0.1,0.1,0.1,0.1,0.1l0.1-0.1c0-0.1-0.1-0.1-0.1-0.1C568.3,354.2,568.2,354.2,568.2,354.2z M569.7,338.5
		c0-0.1-0.1-0.1-0.2-0.2c-0.1,0.1-0.1,0.2-0.1,0.4s0.1,0.1,0.2,0.1C569.5,338.8,569.7,338.6,569.7,338.5z M569.7,344.8h-0.1
		l-0.1,0.1c0.1,0.1,0.1,0.1,0.1,0.1C569.7,344.9,569.7,344.9,569.7,344.8z M570.1,349.7c0,0-0.1,0-0.1,0.1h0.1V349.7z M572.1,352.1
		c-0.4,0.5-0.7,1.1-1,1.6c-0.1,0.1-0.1,0.2-0.1,0.4c-0.1,1,0.2,2-0.7,2.8c0,0.1,0.4,0.8,0.7,1.1c0.1,0.1,0.8-0.2,1-0.4
		c0.2-1.2,0.4-2.5,0.6-4.1C572.4,353.2,572.3,352.7,572.1,352.1z M572.2,348.8c-0.1-0.4-0.2-0.6-0.4-0.8c-0.1,0.1-0.4,0.1-0.2,0.2
		c0,0.4,0.1,0.6,0.2,1.1C571.9,349.1,572.2,349,572.2,348.8z M572.1,351c-0.1-0.1-0.1-0.2-0.2-0.2c0,0,0,0-0.1,0
		c0.1,0.1,0.1,0.2,0.1,0.2C571.9,351,571.9,351,572.1,351z M572.2,341.2c0,0.1,0,0.1,0,0.1V341.2z M572.7,333.6
		c-0.1,0-0.2-0.1-0.2-0.1c-0.1,0-0.1,0.1-0.1,0.1c0,0.1,0.1,0.1,0.2,0.2C572.5,333.7,572.7,333.6,572.7,333.6z M572.4,338.3
		c0.1,0,0.2,0,0.2,0c0-0.2-0.1-0.5-0.1-0.6c0.5,0.4,1.1,0.7,1.7,1c0.1,0.1,0.6,0,0.7-0.1c0.1-0.5,0.2-1,0.4-1.6c0,0-0.6-0.2-0.8-0.2
		c-0.6,0.2-1.3,0.6-1.9,1C572.5,337.9,572.5,338.2,572.4,338.3z M573,330.5c-0.1,0.1-0.4,0.4-0.4,0.5c0.1,0.1,0.4,0.4,0.5,0.5
		c0.1,0,0.2-0.1,0.4-0.2C573.4,331,573.1,330.7,573,330.5z M572.7,342.5c0,0,0,0,0.1,0c0,0,0-0.1,0.1-0.1c-0.1,0-0.1,0-0.2-0.1
		C572.7,342.4,572.7,342.4,572.7,342.5z M574.3,359.8c0-0.1-0.2-0.2-0.4-0.4c-0.1,0.1-0.4,0.4-0.4,0.6s0.2,0.5,0.4,1.1
		C574.2,360.4,574.3,360.1,574.3,359.8z M574.9,333.5c0.1,0,0.1-0.1,0.1-0.1s0,0-0.1-0.1c0,0.1,0,0.1,0,0.1V333.5z M576.6,314.5
		c0,2.2,0,4.2,0,6.2c0.1,0.5,0.2,1,0.4,1.4c0.4-0.2,0.8-0.5,1.1-0.8c0.7-0.6,1.4-1.6,2.5-0.6c0.1,0,0.6-0.4,0.7-0.6
		c0.6-1.3,1.2-2.6,1.7-4c0.4-0.7,1.3-1.6-0.2-2c-0.1,0-0.1-0.5-0.1-0.7c0.4-1.3,0.6-2.6,1-4c1.2-3.5,1.7-7,1.8-10.7
		c0.1-5.3-1.4-10.2-4.1-14.8c-0.2-0.5-1.2-1.3-1.4-1.2c-0.8,0.4-1.8,1.1-2,1.8c-0.5,1.3-0.5,2.8-0.6,4.1c-0.2,2.8-0.4,5.4-0.5,8.2
		c0,0.7-0.2,1.4-0.2,2.2c0,5.2,0,10.3,0,15.5C576.6,314.5,576.6,314.5,576.6,314.5z M579.6,326.2c0-0.2,0.1-0.6,0.1-0.8
		c0-0.5-0.1-1-0.1-1.4c0.1-0.5,0.4-0.8,0.6-1.3c-0.4,0.4-0.7,0.6-1.1,0.8c-0.2,0.2-0.5,0.5-0.5,0.7c0.1,0.7,0.4,1.3,0.5,2
		C579.3,326.2,579.5,326.2,579.6,326.2z M581.5,324c-0.1,0.1-0.4,0.2-0.4,0.2c0.1,0.2,0.2,0.4,0.4,0.5c0.1,0,0.1-0.1,0.2-0.4
		C581.7,324.2,581.7,324.1,581.5,324z M588.9,302.9c0.1-0.2,0.2-0.4,0.2-0.5c-0.1-0.2-0.4-0.2-0.5-0.4c0,0.1-0.1,0.2-0.2,0.4
		C588.5,302.6,588.7,302.8,588.9,302.9z M589.3,291.7c-0.1,0-0.2,0-0.2,0v0.1h0.1C589.3,291.8,589.3,291.7,589.3,291.7z"/>
	<path style="&st0;" d="M599.7,331.9c0.1-3.4,0.2-6.7,0.5-10.1c0.4-6.1,0.6-12.2,1.1-18.4c0.2-4.7,0.7-9.2,1.2-13.8
		c0.1-1.2,0.1-2.4,0.4-3.6c0.6-2.4,2.5-3.4,4.9-2.8c0.4,0.1,1,0.1,1.2,0c1.3-1.6,3.4-1.4,5.3-1.7c2.8-0.5,5.8-0.7,8.8-0.8
		c1.3-0.1,2.8,0.1,4.2,0.2c0.7,0.1,1.2,1.6,0.8,2.2c-0.4,0.5-0.7,1-1.2,1.1c-3.6,1.2-7,2.9-10.9,3.1c-0.6,0-1.2,0-1.7-0.1
		c-1.4-0.4-1.8-0.2-1.2,1.2c0.8,1.8,0.6,3.5,0.2,5.4c-0.7,5.4-1.1,10.8-1.7,16.2c-0.1,1.2,0.2,1.6,1.6,1.1c2.2-0.7,4.3-1.4,6.5-2.4
		c1.1-0.5,2.3-0.2,3,0.7c0.4,0.5,0.5,1.4,0.2,1.9c-1.3,1.9-2.4,4.3-4.8,5c-1.8,0.6-3.8,1-5.8,1c-0.8,0-1.2,0.1-1.2,0.8
		c0,3,0.1,6.1,0,9.1c-0.1,2.9-0.5,5.6-0.4,8.5c0,3.4-0.5,6.5-0.2,9.8c0.5,3.8,1.3,7.6,3,11c0.6,1.2,1.3,1.6,2.6,1.7
		c3.7,0,7-1.1,10.1-2.4c1-0.4,2.8,0.1,3.2,1.1c0.4,0.5,0.1,1.4-0.1,2c-1.2,2.2-3.2,3.2-5.5,3.7c-1.3,0.4-2.6,0.5-4,0.6
		c-3.6,0.5-7.2-0.1-10.6-1.7c-4.8-2.2-8.2-5.8-9.2-11c-0.4-1.6-0.6-3.1-1.1-5.4C599.2,341.3,599.3,336.6,599.7,331.9z M605.3,348.4
		c0.1-0.5,0.4-0.8,0.4-1.3c0-2.4,0.1-4.9,0.1-7.4c0-0.7,0-1.4,0.1-2.3c0-0.1-0.1-0.4-0.4-0.6c0,0.2-0.1,0.4-0.2,0.5
		c-0.1,0.4-0.2,0.7-0.1,1.1c-0.1,3-0.2,5.9-0.2,9.2C604.9,347.5,605.2,348,605.3,348.4z M606,321.7c-0.1,0.2-0.2,0.5-0.2,0.8
		c-0.2,2.6-0.4,5.4-0.5,8c-0.1,0.4,0.2,0.7,0.4,1.1c0.1-0.4,0.2-0.6,0.4-1c0.1-2.6,0.2-5.4,0.2-8.3
		C606.3,322.3,606.1,322.1,606,321.7z M606,333.4c0.1-0.1,0-0.2-0.1-0.4c0,0.1-0.1,0.1-0.1,0.2c0,0,0,0.1,0,0.2
		C605.9,333.5,606,333.4,606,333.4z M606.5,316.7c0-0.1-0.1-0.1-0.1-0.2c-0.1,0.1-0.2,0.1-0.2,0.2c0,0,0.1,0.1,0.2,0.2
		C606.4,316.8,606.5,316.7,606.5,316.7z"/>
	<path style="&st0;" d="M656.2,317.4c-0.4-3.1-1.8-5.8-3.1-8.5c-0.7-1.6-2-2.3-3.6-2.9c-1.7-0.7-3.4-1.4-5-2.4c-2-1.2-4-2.6-6-4
		c-0.1,0-0.2-0.1-0.2-0.2c-1.3-2.5-3.7-4.8-2.4-8.3c1.1-3,1.9-6.2,3-9.4c0.6-1.9,2-3.4,3.8-4.4c2-1.2,4.3-1.8,6.6-2.4
		c3.6-1,6.8,0.2,8.8,3.4c1.2,1.8,2.2,3.7,3.2,5.5c1,1.6,0.7,3.4,0.6,5c0,0.1,0,0.4-0.1,0.5c-1.3,1.3-2.5,2.8-3.8,4.1
		c-0.2,0.2-0.7,0.5-1.2,0.7c-1.4,0.5-2.5-0.4-2.2-1.8c0.5-3-0.2-5.9-1.4-8.6c-0.7-1.9-1.9-1.9-3.1-0.2c-0.7,0.8-1.6,1.4-2.2,2.3
		c-0.7,1-1.3,2-1.7,3.1c-0.7,1.9-1.3,3.8-1.9,5.8c-0.8,2.6-0.5,3.8,2.2,5.2c1.3,0.6,2.6,0.8,4,1.3c1.3,0.6,2.5,1.1,3.7,1.8
		c1.3,0.6,2.9,1.2,4,2.3c1.6,1.3,2.9,3,4.2,4.7c1.1,1.6,1.9,3.2,3,4.9c1.1,1.8,1.1,4,1.3,5.9c0.6,3.4,1,6.7,1.2,10.1
		c0.1,1.7-0.1,3.4-0.2,5.2c-0.1,1.9,0,3.8-0.4,5.8c-0.4,2.2-1.1,4.3-1.4,6.6c-0.6,3.4-1.7,6.6-3.2,9.6c-0.7,1.4-1.8,2.8-2.5,4.2
		c-1.2,2.6-3.8,2.5-6,3.7c-2.3,1.3-4.3,0.6-6.5-0.5c-0.7-0.5-1.7-0.7-2.5-1c-4-1.1-7.3-3.4-9.8-6.6c-0.4-0.5-0.5-1.1-0.6-1.6
		c-1.7-4.3-1-8.6,0.2-12.8c0.7-2.5,1.3-5.2,2.2-7.6c1.3-4,2.6-7.8,5.5-10.8c1.8-1.8,3.7-3.2,6.4-3.2c1.2,0,3,1.3,3.4,2.4
		c0,0.5,0,1-0.2,1.3c-0.4,0.8-0.8,1.7-1.3,2.4c-2.3,2.9-3.2,6.1-4.3,9.5c-1,3.2-2,6.5-3,9.6c-0.2,0.8-0.2,1.8-0.4,2.8
		c0,2.6,0,5.4,0,8.2c0,1.8,0.8,2.3,2.4,1.6c1.2-0.4,2.3-1,3.4-1.4c1.8-1,3-2.6,4-4.4c2.5-5,4.1-10.6,4.6-16.2
		c0.2-2.2,0.4-4.2,0.5-6.4h0.1C657.3,326.4,656.8,322,656.2,317.4z M639.4,334.1V334c-0.1,0-0.1,0-0.2,0.1c0.1,0,0.1,0,0.1,0
		C639.4,334.1,639.4,334.1,639.4,334.1z M647.8,326.9h0.1l-0.1-0.1V326.9z M660.9,286.1l-0.1-0.1v0.1H660.9z"/>
</g>
</svg>
