<svg id="Layer_1" data-name="Layer 1" xmlns="http://www.w3.org/2000/svg" viewBox="0 0 83 45.54"><defs><style>.cls-1{fill:#8d96a6;}</style></defs><title>Artboard 2</title><path class="cls-1" d="M11.2,30.34a3.41,3.41,0,0,1,0,.64.87.87,0,0,1-.2.56c-.12.16-.16.36-.32.48-.36.48-.88.92-1.28,1.36a.14.14,0,0,0-.08,0l-1,.48c-.44.24-.88.48-1.36.72a2.08,2.08,0,0,0-.28.12,9.31,9.31,0,0,1-2.36.32A3.76,3.76,0,0,1,2,34.46c-.08,0-.16-.08-.16-.12a.41.41,0,0,0-.28-.24.6.6,0,0,1-.44-.56A3.34,3.34,0,0,1,1,33.06a1.68,1.68,0,0,0-.16-.4.15.15,0,0,1,0-.12c.08-.12,0-.16-.12-.2s-.12-.16-.08-.24a.57.57,0,0,0-.12-.6.67.67,0,0,1-.12-.4c0-.12.08-.24-.12-.24l0-.08a1.8,1.8,0,0,0,0-.8,9,9,0,0,1,0-1c0-.16,0-.28,0-.4a1.64,1.64,0,0,1,0-.44,6,6,0,0,0,.08-.88S0,27.1,0,27.06a1.44,1.44,0,0,1,.08-.44c0-.12,0-.24,0-.36a.14.14,0,0,1,0-.08.09.09,0,0,1,.08.08c0,.16,0,.36,0,.48s.08.2.12.32c0-.12,0-.24,0-.36v-.6a.57.57,0,0,0-.08-.24v0c-.2,0-.2,0-.16-.16s.08-.36.12-.52v-.28a.3.3,0,0,1,0-.2c.08-.2.24-.44,0-.64,0-.08,0-.24.08-.32s.16-.4.2-.56-.12-.24.08-.32c-.24-.16,0-.28.08-.4v-.2c-.2-.28,0-.44.08-.64a2.48,2.48,0,0,0,.28-.76.3.3,0,0,0,0-.2s0-.08,0-.12,0-.08,0-.12.12-.08.12-.12a7.36,7.36,0,0,0,.2-.92h0c-.32-.32,0-.52.08-.72,0,0,0-.08,0-.12-.12-.4.08-.68.36-1,.08-.12,0-.32.24-.32V17.1c-.12-.16,0-.24.08-.4s0-.32,0-.48c.28.08.44-.08.36-.36s0-.24.16-.4a1.35,1.35,0,0,0,.36-.8c0-.12.16-.2.16-.28s-.12-.2-.08-.24.24-.24.36-.4a.58.58,0,0,0,.08-.12c-.16-.24,0-.36.16-.52h0c.12-.16.24-.4.4-.6s.2-.36.28-.52a1.39,1.39,0,0,0,.2-.52c0-.08.12-.16.16-.24.32-.4.68-.8,1-1.2.2-.24.44-.44.64-.68s.48-.6.76-.84c0-.08.08-.16.12-.16a2.84,2.84,0,0,1,1.24-.52s.08,0,.08,0c.52-.32,1.12-.12,1.68-.2a7.33,7.33,0,0,1,2.08.16,1.2,1.2,0,0,1,.4.16c.28.24.6.44.72.76a3.45,3.45,0,0,0,.28.4,1.13,1.13,0,0,1,.16.72c0,.08,0,.16,0,.24a.14.14,0,0,0,0,.08c-.16.28,0,.52,0,.84a2.67,2.67,0,0,0,0,.8,6.6,6.6,0,0,1-.16,1.2s0,.08,0,.16a1.28,1.28,0,0,0,0,.32c-.24.08-.2.16-.16.32s0,0,0,.08c-.16.32-.32.64-.52,1a2.65,2.65,0,0,1-.6.76l-.12.12c-.4,0-.76-.12-1.16-.16-.16,0-.16-.08,0-.2a5.48,5.48,0,0,0,1-1.48c.16-.4.28-.8.4-1.2a7,7,0,0,0,.2-.88c0-.2,0-.4.08-.6,0-.36,0-.76.08-1.12a.93.93,0,0,0-.2-.84,1.77,1.77,0,0,1-.4-.52,2.13,2.13,0,0,0-.92-.52.89.89,0,0,0-.64,0,3.81,3.81,0,0,0-1.32.52,1.73,1.73,0,0,0-.36.4c-.2.24-.4.52-.6.76s-.36.4-.52.64a6.67,6.67,0,0,1-.64.84.86.86,0,0,1-.12.2c-.08.28-.2.52-.28.84,0,0-.08.12,0,.16.12.2,0,.36-.08.52a6.66,6.66,0,0,0-.32.8c-.08.24-.2.56-.32.84a.24.24,0,0,0-.16,0c-.08,0-.16,0-.24.08a.55.55,0,0,1,.16.12c.12,0,.2,0,.12.16s0,.36-.28.44a.15.15,0,0,0,0,.12c0,.24,0,.48-.24.68,0,0,0,0,0,.08s.08.28-.16.16c0,0-.12,0-.12,0s0,.12.08.12c.24,0,.12.08,0,.2s0,0,0,.12a2,2,0,0,1-.36.84l0,0c.16.44-.12.72-.24,1,0,0-.12,0-.12.12s-.08.08-.08.12,0,.16,0,.28-.08.4-.12.64a.09.09,0,0,1-.08.08c-.16,0-.12.08,0,.12s.08.12,0,.16-.28.2-.16.36,0,.12,0,.16c0,.2-.16.32-.16.56a1.32,1.32,0,0,1-.24.76v.44c-.16.52-.2,1.12-.4,1.68a4.69,4.69,0,0,0-.12,1.08c-.08.8-.2,1.6-.24,2.4v.32c0,.16,0,.28-.16.28s-.12.08-.12.08,0,.12,0,.16.08,0,.16-.08.08,0,.12,0v1a6.75,6.75,0,0,0,.2,1.24c.12.36.24.68.36,1.08a5.84,5.84,0,0,1,.2.8c0,.12.08.2.2.24s.16.28.24.44a1,1,0,0,1,.32.24,3.36,3.36,0,0,0,2.84,0,4.54,4.54,0,0,0,1.52-.76A4.37,4.37,0,0,0,9.76,32a7.43,7.43,0,0,0,.68-1,2.24,2.24,0,0,0,.2-.32A.9.9,0,0,1,11.2,30.34ZM.28,27.62a0,0,0,0,1,0,0,.24.24,0,0,0,0-.16.3.3,0,0,1,0,.16Zm0,.48h0v0a0,0,0,0,0,0,0Zm0,.6v-.08l0,0v.08A0,0,0,0,1,.32,28.7Zm.24,2.72h0v0A0,0,0,0,1,.56,31.42ZM2.76,34c.08-.08.08-.12,0-.2a3.34,3.34,0,0,1-.32-.48c-.2-.76-.48-1.44-.68-2.2a12.86,12.86,0,0,1-.24-2.76c0-.52,0-1.08,0-1.64a14.15,14.15,0,0,1,.36-2.52s0,0-.08-.12a.3.3,0,0,1-.16.08s0,.08,0,.16v0c0,.12-.16.28-.16.36a1.1,1.1,0,0,1-.08.64.5.5,0,0,0,0,.24c-.08.24.12.6-.12.84-.08.12,0,.36,0,.52s0,.24,0,.28.12.24,0,.36-.12.6-.28.88v0c.2.12,0,.32.08.52s0,.12.12.12.08.08.12.12-.08.08-.12,0c-.2,0-.2,0-.12.16s0,.12.08.2a.09.09,0,0,0,.08.08h.12s0,.08,0,.12-.16.24-.16.36a4,4,0,0,0,.12.68.14.14,0,0,0,.08,0s.08,0,.12,0a4.08,4.08,0,0,0,.12.48s-.08.12-.08.16a.34.34,0,0,0,0,.28c0,.2.32.28.2.56,0,0,0,0,0,.08S2,32.78,2,33a2,2,0,0,0,.16.44,3.88,3.88,0,0,0,.56.6h0Zm-1.2-.68h0v0h0Zm.2-9.52s0,.08.08.12.16-.12.2-.2c.12-.52.2-1,.28-1.56,0,0,0-.08,0-.12a.15.15,0,0,0-.12,0,.35.35,0,0,0-.12.24A14,14,0,0,0,1.76,23.82ZM2,18.58s.12-.08.12-.12c.08-.2.12-.44.2-.6s0-.2-.08-.12c-.2-.12-.2,0-.2.12a2.4,2.4,0,0,0-.08.48A.5.5,0,0,0,2,18.58Zm.28,2.72a.3.3,0,0,0,0,.2c.12.08.08.2,0,.28s0,.08,0,.12.08,0,.08,0a.31.31,0,0,0,.08-.16,7.89,7.89,0,0,1,.28-1c.08-.36.24-.76.36-1.12s.2-.88.32-1.32a15.16,15.16,0,0,1,.88-2.36,2.37,2.37,0,0,0,.24-.56,0,0,0,0,0,0,0s-.08,0-.08,0-.12.16-.16.24,0,.36-.32.36c0,0-.08.08-.08.12-.08.28-.16.56-.28.88,0,.12-.08.28-.12.44s-.16.56-.28.88c0,.12,0,.28-.16.36a.5.5,0,0,0-.24.44,4.58,4.58,0,0,1-.16,1.24A10.39,10.39,0,0,0,2.24,21.3Zm0,5.68v.12s0,0,0-.08Zm.16,1.84H2.36l0,0a0,0,0,0,1,0,0Zm-.08-11.4.08.08c0-.08,0-.12,0-.16a.12.12,0,0,1-.08,0S2.36,17.38,2.36,17.42Zm0,13.48s0,0,.08.08,0-.08,0-.12l0,0Zm.12-14s0,0,0,.08,0,0,0-.08l0,0A0,0,0,0,1,2.52,16.94ZM2.6,31.58a.14.14,0,0,1,0-.08l0,0a0,0,0,0,0,0,0S2.56,31.54,2.6,31.58Zm.08,1s-.08,0-.12.08,0,.08.08.12.08-.08.08-.12Zm0-5.48v0l0,0Zm0-.72a.14.14,0,0,0,.08,0,.14.14,0,0,0,0-.08l0,0S2.76,26.34,2.72,26.38Zm.08-.44h0a0,0,0,0,0,0,0h0S2.76,25.94,2.8,25.94Zm.08.92s0-.08-.08-.12a.14.14,0,0,1,0,.08.3.3,0,0,0,0,.16C2.84,26.9,2.88,26.9,2.88,26.86ZM2.8,31.78h0s0,0,0,0l0,0S2.84,31.74,2.8,31.78Zm.12.24,0,0a.14.14,0,0,0-.08,0s0,0,0,.08ZM3,26.1v0s0,0,0,0v0A0,0,0,0,0,3,26.1Zm.16-2.16a0,0,0,0,1,0,0c-.08,0-.08,0-.12,0l0,0S3.12,23.94,3.16,23.94Zm-.08.52h0Zm.44-1.76s-.08-.12-.16-.12-.08,0-.2.08a1.28,1.28,0,0,0,.24.12S3.48,22.74,3.52,22.7Zm-.36.16h0v0Zm.24.84c-.08,0-.12,0-.2,0l0,0s.08,0,.12.08A.5.5,0,0,1,3.4,23.7Zm0,9.36a1.45,1.45,0,0,0-.2-.32h0a.15.15,0,0,0,0,.12,2.08,2.08,0,0,0,.16.28A.12.12,0,0,0,3.4,33.06ZM3.24,15.82l0,0,.08-.08,0,0Zm0,16.08q.12.12.12,0c0-.08-.08-.16-.08-.24v.12A.4.4,0,0,1,3.24,31.9Zm.12,1.84v0h0Zm.24-12a.18.18,0,0,1,0-.12v0c-.24.12-.08.4-.16.6h.12c.2,0,0-.24.16-.32S3.76,21.82,3.6,21.78ZM3.44,23v0h0Zm.12-9v.08l0,0A0,0,0,0,0,3.56,14Zm.2,3.36a0,0,0,0,0,0,0v0Zm.28.16c-.08,0-.08-.08-.12-.08a.81.81,0,0,0-.16.32v0A1.85,1.85,0,0,1,4,17.54Zm.08-4.44h0Zm.08,3.28h0Zm.16-1.44a.33.33,0,0,0,.12.2h0c.08-.2.2-.36.28-.52a.14.14,0,0,0,0-.08.14.14,0,0,0-.08,0q-.06.24-.24.24S4.32,14.94,4.36,14.94Zm.36,3.88s-.08,0-.08,0-.08,0-.12.08,0,0,.08.08S4.68,18.82,4.72,18.82Zm0-4.44a.24.24,0,0,0,.16,0,.43.43,0,0,0,0-.48c0,.12-.12.24-.16.4A.15.15,0,0,0,4.76,14.38Zm.56-.68a1.27,1.27,0,0,1-.36.12.12.12,0,0,0,.08,0c.36.2.44.2.56-.24a.4.4,0,0,0,0-.12.15.15,0,0,0-.12,0S5.36,13.7,5.32,13.7Zm-.24,3.92v0ZM5.2,14.1v0ZM5.48,16,5.4,16s-.12.08-.16.12a.31.31,0,0,0,.12.08S5.44,16.06,5.48,16Zm.16-.24s0,0,0-.08-.08.08-.08.12,0,0,0,0S5.6,15.82,5.64,15.78Zm.16-.68a3.75,3.75,0,0,0-.2.32s.08.08.08.08a.83.83,0,0,0,.24-.16A1.29,1.29,0,0,0,5.8,15.1Zm.6-1.32s0,0,0,0S6.4,13.74,6.4,13.78Zm0-1.84a.12.12,0,0,0,0,.08,0,0,0,0,0,0,0l.16-.28v-.08s-.08,0-.08,0A1,1,0,0,0,6.44,11.94Zm.28-.4a0,0,0,0,1,0,0s0,0,0,0h0S6.72,11.5,6.72,11.54Zm.4-.56v0c-.08.12-.16.16-.24.28Zm-.2,1.68v0Zm.36-1.92v0s0,0,.08,0,0,0,0,0Zm.08-.24.08.08s0-.08,0-.12h0S7.4,10.5,7.36,10.5Z"/><path class="cls-1" d="M11.72,27.22v0a.14.14,0,0,1,0-.12.3.3,0,0,0,.12-.28v-.24c0-.2-.12-.48-.12-.68a.57.57,0,0,1,.08-.24s.12-.16.16-.24a1.5,1.5,0,0,1,.16-.56,5.21,5.21,0,0,0,.28-.48c.12-.4.88-1.16,1-1.08L13.24,23c-.08,0-.08-.12-.12-.16a.17.17,0,0,1,0-.12.74.74,0,0,0-.08-.28.22.22,0,0,1-.08-.2c0-.08,0-.12-.08-.2a.43.43,0,0,0,.08-.24,0,0,0,0,0,0,0v-.4a.14.14,0,0,0,0-.08s0,0,0-.12a.3.3,0,0,0,0-.2v-.12a.65.65,0,0,1,.16-.28v-.16l.24-.32a1.75,1.75,0,0,1,.32-.4c.08-.16.12-.32.32-.36a3.4,3.4,0,0,1,1.4-.44.94.94,0,0,1,.4-.12s.12,0,.16,0,.2,0,.32,0a.43.43,0,0,1,.24.08.15.15,0,0,0,0,.12,1.27,1.27,0,0,1,.36.12c.16,0,.2.12.36.2a1.42,1.42,0,0,0,.4.32l.28.2.16.24a.94.94,0,0,0,.08.32c0,.16.16.28.24.36a.77.77,0,0,1,.12.4s0,.2,0,.24a.9.9,0,0,1,.12.4,7.77,7.77,0,0,1,.08,1V23.9a2.76,2.76,0,0,1-.08.52v.12c0,.12,0,.24.16.24a7.49,7.49,0,0,1,1.16-.36,5.76,5.76,0,0,0,1.64-.84l.44-.28c0-.12.12-.16.16-.16s.48-.28.52-.24-.2.52-.2.6,0,.08-.08.12c-.4.28-.84.6-1.32.88a7.29,7.29,0,0,1-1.76.68,1.52,1.52,0,0,1-.6.2h-.16c-.08,0-.16,0-.16.12v.08a.46.46,0,0,1-.12.24v.44c-.08.12,0,.24-.12.32l-.24,1c-.32.48-.64.88-.92,1.32l-.24.4a2.84,2.84,0,0,1-.84.6l-.48.24-1.08.24a1.11,1.11,0,0,1-.36,0,2.17,2.17,0,0,1-1.84-1c-.28-.44-.36-.84-.56-1.2C11.76,27.9,11.72,27.58,11.72,27.22Zm.48-2a0,0,0,0,0,0,0A0,0,0,0,0,12.2,25.18Zm.48,2c0-.08.08-.08.08-.12s0,0-.08,0H12.6a.51.51,0,0,1-.24,0h-.08a.51.51,0,0,0,.4.32Zm-.28,1.68h0Zm.12-.64v0Zm.08-1.76s0,.08,0,.12,0,0,0,0Zm.12,1.8s0-.08,0-.12,0,0,0-.08v-.2a.24.24,0,0,1,0-.16.3.3,0,0,1,0-.16l-.16.24a0,0,0,0,0,0,0l0,0a.24.24,0,0,1,0,.16Zm0-2s0,0,0,0a.21.21,0,0,0-.12.16S12.76,26.22,12.76,26.18Zm.16,2.76s0,0,0,0a.12.12,0,0,1,0-.08l-.24-.48a0,0,0,0,1,0,0Zm.6.48c.08.08.24.12.28.24,0,0,0-.08,0-.12s0-.08,0-.12Zm.6-1.84s-.16.08-.16.12,0,.08.16.12v.12a.3.3,0,0,0,0,.2,0,0,0,0,1,0,0h.08a.16.16,0,0,0,.08-.16l.28-1,.08-.16s.12,0,.2,0a.2.2,0,0,0,0,.12.89.89,0,0,1,0,.28,4.35,4.35,0,0,0,0,.72,3.66,3.66,0,0,0,0,.68c0,.12,0,.16.16.24s.12,0,.2,0a.81.81,0,0,0,.76-.4s0-.12,0-.12c.44-.12.6-.48.8-.8l1-2.24v0s0-.08-.08-.12c-.72-.2-1.4-.36-2.12-.52a.63.63,0,0,0-.32-.12c-.16,0-.24.12-.28.4a5.09,5.09,0,0,0,0,.8v.36c0,.16-.24.32-.32.48a0,0,0,0,1,0,0c-.08,0-.08-.08-.08-.08s.08-.08.08-.12,0-.08-.12-.16,0,0-.08,0h0v0a.57.57,0,0,0-.08.24v.08a.47.47,0,0,1-.24.24.42.42,0,0,1-.08.2l.12.28s0,0,.08,0Zm.16-5.76a1,1,0,0,1,.08.28l.16.2.16.24c0,.08.12.2.16.24l.24.28.36.44c0,.08.12.08.16.12a.27.27,0,0,0,.2.16c0,.08.16,0,.2.08s.24,0,.32,0,0,.08.12.12l.2.12,1.16.32h.12c.12,0,.12,0,.16-.16v-.88a6.94,6.94,0,0,0,0-.92v-.28c0-.4,0-.76,0-1.12a.44.44,0,0,0-.2-.4,4.21,4.21,0,0,1-.68-.4,2.72,2.72,0,0,0-.56-.44,1.57,1.57,0,0,0-.56-.2,2.14,2.14,0,0,0-.64-.16,1.17,1.17,0,0,0-.36.08,3.17,3.17,0,0,0-.68.56,1.42,1.42,0,0,0-.28.4s-.08,0-.08.08v.28l.08.48a1,1,0,0,0,.2.36S14.28,21.78,14.28,21.82Zm0,6.76h-.16a.14.14,0,0,1,0,.08l.12.52c0,.08.08.08.16.12a.15.15,0,0,1,0-.12C14.44,28.94,14.32,28.78,14.28,28.58Zm.48-2.76s-.08,0-.08-.08l-.08.08a.12.12,0,0,0,0,.08C14.68,25.82,14.72,25.86,14.76,25.82Z"/><path class="cls-1" d="M30.52,24.1a3.8,3.8,0,0,1-.16.72,25.2,25.2,0,0,1-1.12,3c-.12.32-.32,1.2-.48,1.52s-1.36,3-1.48,3.32-.48.64-.6.92-.4.28-.4.44a1.09,1.09,0,0,1-.36.48c0,.08-.2.28-.28.4a1.1,1.1,0,0,1-1.12.44.88.88,0,0,1-.72-.12,4.23,4.23,0,0,1-1.24-.68c-.28-.28-.28-.56-.52-.92a1.47,1.47,0,0,1-.4-.64,4,4,0,0,1-.12-.68,4.84,4.84,0,0,1-.2-.88c0-.28-.08-.6-.12-.84V29.3l-.12-.12a16.64,16.64,0,0,0,.16-2.44v-.4a1.86,1.86,0,0,0,.08-.64c0-.12,0-.24,0-.32a.15.15,0,0,0,0-.12s0,0,0,0a.12.12,0,0,1,0-.08,1.11,1.11,0,0,0,0-.36c0-.24,0-.48,0-.68a1.18,1.18,0,0,1,.08-.4v-.12h-.08a3.44,3.44,0,0,0,0-.64,0,0,0,0,1,0,0c.36-.24.28-.68.52-.92V21.9a2.12,2.12,0,0,1,0-.48,1.72,1.72,0,0,1,.2-.84,1.25,1.25,0,0,0,.24-.64,5.23,5.23,0,0,0,0-.76,2.64,2.64,0,0,0,0-.56c0-.08.08-.12.12-.2s.12-.16.16-.28,0-.08-.08-.16,0-.16,0-.16c.44-.28.4-.76.48-1.16.12-.56.28-1.12.44-1.64a1.61,1.61,0,0,1,.48-.84c.12-.16.12-.52.24-.8a2.4,2.4,0,0,1,.16-.24c.08-.2.36-.56.52-.84v0c.08-.48.52-.76.6-1.08a8.86,8.86,0,0,1,1.36-1.8,1.33,1.33,0,0,1,1-.68,4.53,4.53,0,0,0,1-.32.8.8,0,0,1,.44-.12,1.46,1.46,0,0,1,1,.52c.28.36.2.72.24,1.12a1.11,1.11,0,0,1,0,.36A7.35,7.35,0,0,1,30.4,12a7.39,7.39,0,0,0-.16.92,11.3,11.3,0,0,1-.92,2.28c-.12.24-.24.48-.36.68a4.12,4.12,0,0,1-.32.6c-.32.48-.52.92-.8,1.4s-.6.68-.88,1a23.64,23.64,0,0,1-2.24,2.24.56.56,0,0,0-.24.28c-.08.44-.08.92-.12,1.36a2.75,2.75,0,0,1-.12,1,2,2,0,0,0-.12.84v2a1.64,1.64,0,0,1,0,.44c0,.2-.08,2-.08,2.24,0,.56.08,1.08.08,1.56A9.6,9.6,0,0,0,24.2,32c.2.8,0,1.68.48,2.12a.15.15,0,0,0,.12,0,.9.9,0,0,0,.56-.24,2.45,2.45,0,0,0,.68-.76c.24-.4.6-.72.8-1.12,0-.08.12-.16.12-.2.2-.4.2-1,.48-1.4s.84-2.16,1-2.64a25.36,25.36,0,0,1,1.52-3.36c.08-.08.32-.68.48-.68s0,0,.08.16A.36.36,0,0,1,30.52,24.1ZM22,27.18c0-.2-.08-.36-.08-.56.08-.84.12-1.68.16-2.48,0-.08.12-.24.12-.32.08-.32.44-.6.48-.92v-.08a.09.09,0,0,0-.08-.08.3.3,0,0,0-.16,0c-.08,0-.16.2-.32.24s-.2.12-.2.2,0,.08.08.16,0,0,0,.08-.08.08-.08.12c-.12.36,0,.76-.16,1.08a0,0,0,0,0,0,0s0,0,0,0a.75.75,0,0,1,.08.32c0,.16,0,.36,0,.48a8.24,8.24,0,0,0-.12,1v.36a2.36,2.36,0,0,1-.08.56c0,.08-.08,1.76-.08,1.84a.55.55,0,0,0,.2.4v0a.88.88,0,0,0,0,.32c0,.12,0,.24-.08.28.12,0,.16.12.2.28.12.56.28,1.12.4,1.68a2.54,2.54,0,0,0,.12.44s.08,0,.12,0a.14.14,0,0,0,0-.08.51.51,0,0,0,0-.24A6.2,6.2,0,0,1,22,30.38v-.12a3.09,3.09,0,0,1,.08-.6c0-.16-.16-.24-.16-.36S22,27.34,22,27.18Zm1.84-9.12a10.07,10.07,0,0,1,.52-1.88,2.2,2.2,0,0,0-.36.28s-.12.08-.2.16a2,2,0,0,0-.28.32.3.3,0,0,0,0,.16,1.73,1.73,0,0,0,.2,0,.3.3,0,0,1,.16,0s0,0,0,0,0,.08,0,.12-.12.24-.2.36a.71.71,0,0,0-.24.36,1.48,1.48,0,0,1-.2.44,1.57,1.57,0,0,0-.16.72,1.94,1.94,0,0,0,0,.48c0,.12,0,.28,0,.4a3.78,3.78,0,0,1-.12-.36s0-.08-.08-.16-.16.12-.2.12,0,.16,0,.2v0a.3.3,0,0,1,.12.28,1.42,1.42,0,0,1-.12.44c0,.48-.16.88-.2,1.28,0,0,0,.12,0,.16.24-.2.52-.28.52-.56v-.12c0-.16,0-.32,0-.44A19.52,19.52,0,0,1,23.88,18.06Zm.88,1.68v.2c.08,0,.12,0,.16,0l1.44-1.44a4.37,4.37,0,0,0,.72-1.16,8,8,0,0,1,.64-1c.28-.6.6-1.12.88-1.68a.46.46,0,0,0,.12-.24c.16-.52.36-1,.6-1.64a10,10,0,0,1,.28-1,7.44,7.44,0,0,0,.16-1.36s.08-.12.08-.2a.94.94,0,0,0-.28-.64.62.62,0,0,0-.4-.28c-.12,0-.24.12-.36.32a11.28,11.28,0,0,0-1.68,2.48c-.2.44-.44.92-.64,1.36-.2.64-.4,1.36-.6,2-.16.32-.32.68-.48,1a.2.2,0,0,1,.16.2.59.59,0,0,1-.12.28,6.91,6.91,0,0,1-.28,1.24,14.16,14.16,0,0,0-.4,1.52Z"/><path class="cls-1" d="M37,30.7a2.72,2.72,0,0,1-1.64-2.52,16.06,16.06,0,0,1-.12-2.4.43.43,0,0,0-.08-.24s-.16,0-.16.12c-.36.4-.6.92-.92,1.32s-.56.84-.8,1.2c-.08.08-.24.12-.32.24s-.32.16-.44.24-.48.4-.72.4a2.87,2.87,0,0,1-1.32-.12,1.75,1.75,0,0,1-1.28-1.6,10.89,10.89,0,0,1,.24-2.56,3.23,3.23,0,0,1,.68-1.08c.2-.36.56-.56.8-.84a2.07,2.07,0,0,1,1.56-.52c.4,0,.88-.16,1.36-.16a1.19,1.19,0,0,1,.92,1.72c-.16.2-.24.24-.56,0,0,0-.12,0-.2-.08-.4-.32-.48-.36-.76,0-.36.24-.6.64-.88.84a5,5,0,0,0-1,2.68c0,.16,0,.4,0,.52l.48-.08c.32-.28.72-.48,1-.68a16,16,0,0,0,2.72-3.92l.72-2.08a6.59,6.59,0,0,0,.32-.8,1.82,1.82,0,0,1,1-1c.16-.12.52,0,.72,0a2.43,2.43,0,0,1,.68.16.88.88,0,0,1,.28.36.53.53,0,0,1-.12.28c-.28.88-.64,1.68-.92,2.48a10.37,10.37,0,0,0-.76,2.12,9.64,9.64,0,0,0-.16,2.12c0,.48,0,.92,0,1.28s0,.88.24,1.08a.47.47,0,0,0,.76,0,2.64,2.64,0,0,0,1.6-1.84c.16-.52.76-1,1-1.56s.32-1.28.76-1.36c0,0,0,0,.08,0s.08,0,.16,0,.16.08.16.12,0,0,0,0V25L40.8,27.3a.3.3,0,0,0-.08.16s0,0,0,0l-.08.16a5.06,5.06,0,0,0-.76,1.12,5.13,5.13,0,0,1-1.16,1.52A1.75,1.75,0,0,1,37,30.7Z"/><path class="cls-1" d="M52,25.54c.4-.32,1.52-2.2,1.64-2.2a.11.11,0,0,1,.12.12,16.46,16.46,0,0,1-1.68,3.36,20.83,20.83,0,0,0-1,1.88c-.64.8-1.36,2.88-2.64,2.84a1.37,1.37,0,0,1-.64-.16,1,1,0,0,1-.4-.56l-.28-.68a3.62,3.62,0,0,1-.4-1.92c0-.56,0-1.12,0-1.68a5.41,5.41,0,0,0-.16-1.12c0-.08,0-.16,0-.16s-.08,0-.2.08l-1.24,1.28a3.87,3.87,0,0,0-.24.72,2.26,2.26,0,0,1-.16.48,4.26,4.26,0,0,1-.16.76,2.67,2.67,0,0,1-1,1.32,1.5,1.5,0,0,1-.64.2h-.2a2.43,2.43,0,0,1-1.08.32h-.08c-.28,0-.4-.2-.36-.48,0-.12,0-.24-.08-.32a1.54,1.54,0,0,1-.12-.84V27.06a22.12,22.12,0,0,1,.28-2.28,2.59,2.59,0,0,1,.08-.8,1.11,1.11,0,0,0,0-.36,1.36,1.36,0,0,0,0-.4c0-.08.2,0,.2,0s0-.12.12-.2,0-.16,0-.2c0-.56.12-.2.2-.72S42,21.34,42,21a.09.09,0,0,1,.08-.08c.08,0,.08.08.12.08s0,0,0-.08v-.44a1.62,1.62,0,0,1,.12-.32s0-.08.08-.08a.58.58,0,0,0,.4-.28s0,0,.12,0,.08,0,.12-.12h.12l1,.24c.4.12.6.36.6.68v.2a4.26,4.26,0,0,1-.16.76c0,.08-.08.24-.12.24s-.16.08-.2.2c-.08.56-.12.12-.2.64l-.12.4v.12s.08,0,.12,0,0,0,.08,0a.14.14,0,0,1,0,.08c0,.16,0,.4-.24.48a.48.48,0,0,0-.2.2v.2a.29.29,0,0,1,.16.24.22.22,0,0,1-.08.2,1,1,0,0,0-.2.72.5.5,0,0,0,0,.24v.76a.68.68,0,0,0,.08.2v.16l.2-.12a4.71,4.71,0,0,1,1.24-1.28c.4-.36.8-.72,1.2-1a3.47,3.47,0,0,1,.88-.68,2,2,0,0,1,.84-.2,1.1,1.1,0,0,1,.36,0c.08,0,.12.16.12.24v0c-.12.6-.28,1.16-.36,1.72-.12.36-.08.72-.16,1a3.78,3.78,0,0,0-.2,1.32,3.1,3.1,0,0,0-.08.64,5,5,0,0,0,.12.76c.16.4.4.76.6,1.16a.38.38,0,0,0,.32.24c.12,0,.24-.2.32-.28a11.78,11.78,0,0,0,1.68-2.48A20,20,0,0,1,52,25.54ZM42,27.1,42,26.74a.94.94,0,0,1-.08.32,1.1,1.1,0,0,1,0,.36.21.21,0,0,0,.08.16c0-.08,0-.12,0-.16Zm0,.84a.09.09,0,0,0-.08-.08v.08s0,0,0,.08A.14.14,0,0,1,42,27.94ZM42,26l0,0Zm.12-1.76-.12.2v.08a.57.57,0,0,0,.08.24l.08-.24A1.42,1.42,0,0,0,42.16,24.26ZM42.44,26s0,0,0,0h-.08s0,.08,0,.12S42.44,26,42.44,26Zm.16-.76h-.08l-.08.32a.12.12,0,0,0,0,.08s0,0,0-.08Zm.12-.6a.75.75,0,0,0-.08-.32s0-.08-.08-.12,0,.08,0,.16a2.06,2.06,0,0,0,.08.44h0a1.73,1.73,0,0,0,0,.2l.08-.16A.36.36,0,0,0,42.72,24.62Zm0-1,.12-.12a.12.12,0,0,1,0-.08l-.12.12A.14.14,0,0,0,42.72,23.66Zm.12,3.52a.3.3,0,0,1-.08-.2c0,.08-.08.12-.08.2s0,.16,0,.24Zm0-7.44s0,0,0,0V19.7S42.8,19.74,42.84,19.74Zm0,0a0,0,0,0,0,0,0S42.92,19.7,42.88,19.7Zm0,2.12,0,0Zm.84.52c.08-.12.12-.2.2-.24a.15.15,0,0,1-.12-.08c-.08.08-.12.08-.12.16A.24.24,0,0,0,43.76,22.34Zm.2.24a.14.14,0,0,0,0,.08s0-.08,0-.16,0-.08,0-.12A1.73,1.73,0,0,1,44,22.58Z"/><path class="cls-1" d="M66.8,12.62a3.59,3.59,0,0,1-.12.64,10.53,10.53,0,0,0-.28,1.2,1.73,1.73,0,0,0-.24.4c-.2.4-.4.76-.6,1.12-.28.52-.6,1-.92,1.48A11.7,11.7,0,0,0,63.8,19a11.13,11.13,0,0,1-1,1.24c-.24.32-.56.6-.8,1a7.92,7.92,0,0,1-.64,1c-.12.16-.32.36-.44.52a5,5,0,0,1-.6.76l-.2.4a1.09,1.09,0,0,0-.52.6c-.16.24.12.32,0,.6a.77.77,0,0,0-.12.32c-.08.4,0,.8,0,1.24a9.22,9.22,0,0,0-.12,1.48c0,.4,0,.8,0,1.24,0,.16.08.2.12.36v1c.28,2.32,1.24,1.4,2,.92a13.81,13.81,0,0,1,.92-1.4c.24-.44,1.6-2.52,1.76-2.92.52-.88,1.12-1.64,1.56-2.56.08-.28.48-.36.72-.44a.15.15,0,0,1,.12,0s0,0,0,0v0c0,.12,0,.24-.08.28a8,8,0,0,0-.44.8c0,.16-.12.28-.24.44a10.33,10.33,0,0,1-.68,1.32c-.28.44-1.52,2.68-1.84,3.12s-.4.56-.64,1a4.73,4.73,0,0,1-.92,1.4,1.74,1.74,0,0,0-.24.28,4.33,4.33,0,0,1-1,.76l-.6.12h-.12a4,4,0,0,1-1.52-.52,2.49,2.49,0,0,0-.4-.48,2,2,0,0,1-.12-.52,2.07,2.07,0,0,0-.32-.76,2,2,0,0,1-.2-.64c0-.08-.08-.16-.08-.24a.38.38,0,0,0,.08-.28c0-.12,0-.24,0-.36v-.08c0-.12,0-.24,0-.28s0-.08,0-.12c-.08-.2-.16-.2-.16-.4,0-.4.08-.88.12-1.32,0-.24,0-.52-.08-.68v-.08s0,0,0,0h0a.82.82,0,0,1-.32.32,2.9,2.9,0,0,1-.76.64c-.28.32-.72.52-1,.84a.93.93,0,0,1-.52.28.31.31,0,0,1-.2.08,2.14,2.14,0,0,1-.84.2,2.62,2.62,0,0,1-1.4-.44,1.52,1.52,0,0,1-.52-1v-.24a1.49,1.49,0,0,1,0-.6s0-.08,0-.16a.37.37,0,0,1,0-.2,2.8,2.8,0,0,1,.12-.56c0-.12.08-.32.12-.4s0-.16,0-.24a4.22,4.22,0,0,0,.16-.76,3.09,3.09,0,0,0,.28-.64s0-.08,0-.12c0-.28.2-.4.32-.6s.24-.28.24-.44v0a.09.09,0,0,1,.08-.08c.28-.12.6-.16.84-.24a4.12,4.12,0,0,1,1.2-.16h.36c.28,0,.52.16.84.24.12.08.28.12.32.32a.28.28,0,0,0,.08.16c.32.2.36.52.44.88a1,1,0,0,0,.08.28v.08s0,0,0,0-.2.12-.2.2-.12.08-.24.08-.08,0-.12-.12a1.52,1.52,0,0,0-.12-.4v-.08a3,3,0,0,0-.76-.68,1.07,1.07,0,0,0-.48-.12.84.84,0,0,0-.52.2c-.12.12-.28.2-.36.36a4.22,4.22,0,0,0-.72,1.68,10.85,10.85,0,0,0-.16,1.64v.28c0,.52.16,1.16.76,1.16s1.4-.92,1.88-1.4c.08,0,.2-.08.24-.16a2.12,2.12,0,0,0,.88-.72l.24-.36a.14.14,0,0,1,0-.08s-.08-.08-.08-.12.08-.16.08-.28a7.78,7.78,0,0,0,.08-.92,6.52,6.52,0,0,0,.08-.88,10.43,10.43,0,0,0,0-1.12c0-.12,0-.16,0-.24a2.84,2.84,0,0,0,.16-.84.88.88,0,0,0,0-.32v-.08a1.82,1.82,0,0,0,.24-1v0a.06.06,0,0,1,0-.08,1,1,0,0,1,.08-.36s.12-.08.12-.16c.08-.72.08-1.16.16-1.8,0-.28.28-.72.32-1a3.88,3.88,0,0,0,0-.68,5.66,5.66,0,0,1,.4-1.16,39.68,39.68,0,0,1,1.72-3.64c.12-.24.24-.4.36-.6.24-.4.48-.76.8-1.2,0-.08.16-.12.24-.24s.4-.28.6-.44c0-.16.16-.2.32-.2s.28,0,.4,0a7.13,7.13,0,0,1,1.8.52,3.41,3.41,0,0,1,1.12,1,2.43,2.43,0,0,1,.36.72.89.89,0,0,1,0,.36V12c0,.12,0,.2,0,.24A.65.65,0,0,1,66.8,12.62ZM52.48,28.26a.36.36,0,0,0,0-.2.15.15,0,0,1,0,.12.58.58,0,0,1,.08.12S52.52,28.3,52.48,28.26Zm.6-2.92a1.68,1.68,0,0,1,.32-.84.15.15,0,0,0-.12,0,.6.6,0,0,0-.16.36,7.51,7.51,0,0,0-.48,1.32s0,.16-.08.24a3.2,3.2,0,0,0-.12,1.08v0l0,0a3.86,3.86,0,0,1,.12-.72A13,13,0,0,1,53.08,25.34Zm.52-1.24a0,0,0,0,1,0,0h-.08Zm.08-.2,0,0a.24.24,0,0,1,0-.16S53.72,23.9,53.68,23.9Zm.08-.12c.08,0,.12-.08.12-.16a.15.15,0,0,0,0-.12A.74.74,0,0,1,53.76,23.78Zm.24-.4s0,.08,0,.12a.12.12,0,0,1,.08,0s.08-.08.08-.12A.15.15,0,0,0,54,23.38Zm.08.36,0,0A0,0,0,0,0,54.08,23.74Zm.24-.48,0,0v-.08Zm0,.12v.08a0,0,0,0,0,0-.08Zm4.2-6.52s0,0-.08,0l0,0a0,0,0,0,0,0,0S58.52,16.9,58.56,16.86Zm.36-1.56c0-.08.08-.2.12-.28v0C58.92,15,58.92,15.1,58.92,15.3Zm1,7.84s-.12,0-.16.08h0c-.32.16-.48.32-.44.68a0,0,0,0,0,0,0,.15.15,0,0,0,.12,0c.08-.16.2-.32.32-.56C59.88,23.26,59.92,23.18,60,23.14Zm5.92-10.68c0-.16-.08-.28-.12-.44a.36.36,0,0,1-.12-.28c-.08-.28-.08-.76-.12-.8a6.2,6.2,0,0,0-.84-.16,1.31,1.31,0,0,0-.68.16h0s-.08,0-.08,0-.08,0-.12,0-.08,0-.08.12v.08a.21.21,0,0,1-.08.16,3,3,0,0,0-.6.64l0,.24c0,.36-.48.84-.52,1.2s-1,3-1,3.12a7.77,7.77,0,0,1-.36.8,2.82,2.82,0,0,1-.24,1c-.08.36-.28.76-.36,1.16a16.75,16.75,0,0,1-.72,2.28,4.83,4.83,0,0,0-.2.72c-.08.32-.12.28-.08.52V23a0,0,0,0,1,0,0l.08-.08c.48-.52.84-.84,1.28-1.32.32-.32.44-.72.76-1.08a5.14,5.14,0,0,1,.6-.8c.2-.28.4-.68.64-1a11.82,11.82,0,0,0,1.32-2.56c.24-.56.8-1,1.08-1.68a6.55,6.55,0,0,0,.56-1.56A2,2,0,0,0,65.88,12.46ZM59.48,15v.08s.08,0,.12-.08a.29.29,0,0,0,.16-.28.44.44,0,0,0,0-.2c0,.12,0,.32-.24.36Zm0-.24v0h0v0Zm.08-.2v.08a.14.14,0,0,1,0-.08s0,0,0-.08Zm.32-.44v0h0v0Zm3.64-4h0c.2,0,.52,0,.68-.08a1.23,1.23,0,0,1,.4,0s.08,0,.12,0h-.08a.33.33,0,0,0-.32-.2,1.43,1.43,0,0,0-.84.32Zm1.4.52h-.08s-.08,0-.12,0,.08,0,.12.08a1.4,1.4,0,0,1,.68.24v-.08C65.48,10.74,65.12,10.58,64.92,10.58Z"/><path class="cls-1" d="M70.08,30.42c-.36.32-1.36,1.28-1.92,1.08-.36-.16-.76.08-1.12-.16a1.11,1.11,0,0,0-.52-.08,2.42,2.42,0,0,1-1.16-.56,1.29,1.29,0,0,1-.32-.56A1.14,1.14,0,0,1,65,29.5a1,1,0,0,0,0-.6c0-.28,0-.6,0-.92a.24.24,0,0,1,0-.16.72.72,0,0,0,0-.64c.2-.88.44-1.76.68-2.64l.24-.6a2.26,2.26,0,0,1,.32-.52l.24-.4s.08-.08.12-.08l.36-.36s0-.16,0-.24a.15.15,0,0,1,0-.12l.48-.32.12-.08c.12-.28.36-.24.6-.28a2.26,2.26,0,0,1,.52,0c.44.12,1-.08,1.36.28a1.62,1.62,0,0,1,.48.68,6.11,6.11,0,0,1,.08.84,2.29,2.29,0,0,0,.16.56,1,1,0,0,1-.12.92,4.92,4.92,0,0,1-.68.92,3.91,3.91,0,0,1-.92.68,2.59,2.59,0,0,1-1.72.28.23.23,0,0,0-.24.36.38.38,0,0,1-.08.44.72.72,0,0,0,0,.8s0,.2,0,.24a.6.6,0,0,0,0,.72.76.76,0,0,1,0,.52v.08c0,.2-.08.44.16.56a.75.75,0,0,0,.76-.08,7.45,7.45,0,0,0,.64-.52c1.84-1.72,3.64-4.48,5.24-6.44.08-.08.16-.2.28-.16s.16.28.08.48c-.48,1-1.32,2.56-1.88,3.52l-1,1.48-.28.48A10.48,10.48,0,0,1,70.08,30.42Zm-2.6-4.8c0,.12,0,.24.2.16l.92-.6a.21.21,0,0,0,.08-.16,4.45,4.45,0,0,0,.48-1.72L69,22.94c0-.2-.16-.12-.2-.08l-.6.6c-.36.52-.36,1.2-.76,1.68A1.89,1.89,0,0,0,67.48,25.62Z"/><path class="cls-1" d="M82.6,24.14c-.28.8-5.64,9-7,9-.52,0-1.8-.72-1.84-1.64,0,0,0-.08.08-.12a1.91,1.91,0,0,1-.16-.6,3.52,3.52,0,0,1,.08-.68A15.18,15.18,0,0,1,75,26.7a8.64,8.64,0,0,0,1-2.4c-.08,0,0,.08-.2.16a1.57,1.57,0,0,0,.08-.24c0-.08-.28.08-.32,0-.36,0-.2.24-.68.24-.24,0-2.76,1-3-1.6v-.08c0-1.56,1-4,2.56-4h0c.48,0,1.28.08,1.28,1V20a7.48,7.48,0,0,1-.2,1.08A9.37,9.37,0,0,0,75,23v.08c0,.08,0,.08.2.08.44,0,1-.2,1.44-.2s.92.44,1.28.48a2,2,0,0,1,.48,1.28v0c0,.64-.64,1.08-1.2,2.12-.08.24-.12.56-.24.88-.12,0-.12,0-.12-.08s0-.08,0-.08c-.12.68-.44.92-.48,1.48,0,.08.12.2.12.24a.3.3,0,0,0,.16-.08.31.31,0,0,1,.08.2c0,.16-.88.08-.88.84,0,.2.12.36.12.52v.56a.43.43,0,0,0,.4.44v-.08c0-.24-.24-.48-.24-.68a5.35,5.35,0,0,1,.2-1.24s0,0,.08,0c0,.44,0,1,0,1.4,0,.08.12.44.28.44.4,0,4.48-6.28,4.6-6.64a15.58,15.58,0,0,1,1.16-1.12h0C82.52,23.94,82.56,24.14,82.6,24.14ZM75,21a1.34,1.34,0,0,0,.16-.6.78.78,0,0,0-.8-.8c-1.12,0-1.48,1.48-1.48,2.6v.6c0,.28,0,.52.4.56.6,0,.4-.12.84-.68Zm-.64,9.76a0,0,0,0,1,0,0s-.08,0-.08.08a0,0,0,0,0,0,0A.09.09,0,0,0,74.36,30.78Zm0-1a.58.58,0,0,0,.08-.12,0,0,0,1,0-.08,0Zm0,.4s0,0,.12.08c0-.12,0-.24,0-.24s0-.08,0-.12A2.67,2.67,0,0,1,74.4,30.22Zm.08-.56v0Zm.16.76,0,0a.55.55,0,0,1-.12.16s0,0,.08.12A.42.42,0,0,1,74.64,30.42Zm.2-1.32s0,0,0,0A0,0,0,0,1,74.84,29.1Zm.08-.36v.12c.2-.12.16-.36.24-.52s0-.08-.08-.12a.83.83,0,0,1-.08.24.31.31,0,0,1,0,.12A.15.15,0,0,0,74.92,28.74Zm.52.8a.25.25,0,0,1-.2-.24c-.12.16-.08.32-.32.36a1.2,1.2,0,0,1,.16.4.18.18,0,0,0,0,.12,2.3,2.3,0,0,1,.08.4c0,.28-.12.44-.12.68a.51.51,0,0,0,.16.24v-.12c0-.36.12-.8.12-1.12a1.55,1.55,0,0,1-.12-.48.58.58,0,0,0,.12-.08C75.36,29.66,75.44,29.62,75.44,29.54ZM75,31.46s0,0,0,.12a.21.21,0,0,1,.08.16l0,0C75.08,31.62,75,31.58,75,31.46Zm.36-3.56a.15.15,0,0,0,0-.12v.12Zm.12-.32s-.08.12-.12.16A.55.55,0,0,0,75.48,27.58Zm.12-.36s.2-.12.2-.24v-.12a1.33,1.33,0,0,1,.16-.52s-.08,0-.12.08A1.07,1.07,0,0,0,75.6,27.22Zm.08.92v0Zm.08,1.8a0,0,0,0,1,0,0v0Zm0-1.6s0,0,0,0a.14.14,0,0,1,0,.08Zm.28-.76,0,0s-.2.28-.2.44H76A1.18,1.18,0,0,1,76.08,27.58Zm.12-1.2h0Zm.12.28s.08.08.08.08a.53.53,0,0,0,.32-.12s-.24-.2-.24-.28Zm0,1.2V28s0,0,.08,0a.15.15,0,0,0,.12,0,.44.44,0,0,0-.16-.2S76.36,27.82,76.36,27.86Zm.08-1.92c.08,0,.12.08.16.08a.14.14,0,0,0,0-.08.15.15,0,0,0,0-.12A.55.55,0,0,1,76.44,25.94Zm.12,1.52s0,0,.08.12a1.73,1.73,0,0,1,0-.2.14.14,0,0,0-.08,0S76.56,27.42,76.56,27.46Zm.24-1.24h0Zm0,.36.08.08a0,0,0,0,1,0,0,.12.12,0,0,0-.08,0Zm.28.16q-.06.12-.12.12l0,0A.21.21,0,0,0,77,26.74Zm-.12.64s0,.08.08.16C77,27.46,77,27.38,76.92,27.38Z"/></svg>